<?xml version="1.0" encoding="UTF-8"?>

<!DOCTYPE svg PUBLIC '-//W3C//DTD SVG 1.0//EN' 'http://www.w3.org/TR/2001/REC-SVG-20010904/DTD/svg10.dtd'>
<svg style="fill-opacity:1; color-rendering:auto; color-interpolation:auto; stroke:black; text-rendering:auto; stroke-linecap:square; stroke-miterlimit:10; stroke-opacity:1; shape-rendering:auto; fill:black; stroke-dasharray:none; font-weight:normal; stroke-width:1; font-family:&apos;Dialog&apos;; font-style:normal; stroke-linejoin:miter; font-size:12; stroke-dashoffset:0; image-rendering:auto;" xmlns="http://www.w3.org/2000/svg" width="426" xmlns:xlink="http://www.w3.org/1999/xlink" height="466">
  <!--Generated by the Batik Graphics2D SVG Generator-->
  <defs id="genericDefs" />
  <g>
    <defs id="defs1">
      <clipPath clipPathUnits="userSpaceOnUse" id="clipPath1">
        <path d="M-3 -3 L397 -3 L397 227 L-3 227 L-3 -3 Z" />
      </clipPath>
      <clipPath clipPathUnits="userSpaceOnUse" id="clipPath2">
        <path d="M0 0 L382 0 L382 19 L0 19 L0 0 Z" />
      </clipPath>
      <clipPath clipPathUnits="userSpaceOnUse" id="clipPath3">
        <path d="M0 0 L0 193 L382 193 L382 0 Z" />
      </clipPath>
      <clipPath clipPathUnits="userSpaceOnUse" id="clipPath4">
        <path d="M-3 -3 L397 -3 L397 217 L-3 217 L-3 -3 Z" />
      </clipPath>
      <clipPath clipPathUnits="userSpaceOnUse" id="clipPath5">
        <path d="M0 0 L0 183 L382 183 L382 0 Z" />
      </clipPath>
      <clipPath clipPathUnits="userSpaceOnUse" id="clipPath6">
        <path d="M-3 -3 L357 -3 L357 47 L-3 47 L-3 -3 Z" />
      </clipPath>
      <clipPath clipPathUnits="userSpaceOnUse" id="clipPath7">
        <path d="M0 0 L326 0 L326 33 L0 33 L0 0 Z" />
      </clipPath>
      <clipPath clipPathUnits="userSpaceOnUse" id="clipPath8">
        <path d="M0 0 L104 0 L104 134 L0 134 L0 0 Z" />
      </clipPath>
      <clipPath clipPathUnits="userSpaceOnUse" id="clipPath9">
        <path d="M0 0 L104 0 L104 153 L0 153 L0 0 Z" />
      </clipPath>
      <clipPath clipPathUnits="userSpaceOnUse" id="clipPath10">
        <path d="M0 0 L143 0 L143 244 L0 244 L0 0 Z" />
      </clipPath>
      <clipPath clipPathUnits="userSpaceOnUse" id="clipPath11">
        <path d="M0 0 L143 0 L143 304 L0 304 L0 0 Z" />
      </clipPath>
      <clipPath clipPathUnits="userSpaceOnUse" id="clipPath12">
        <path d="M0 0 L143 0 L143 364 L0 364 L0 0 Z" />
      </clipPath>
    </defs>
    <g style="fill:white; text-rendering:geometricPrecision; stroke:white;">
      <rect x="0" y="0" width="426" style="stroke:none;" height="466" />
    </g>
    <g transform="translate(32,242)" style="font-size:11; fill:rgb(122,207,245); text-rendering:geometricPrecision; font-family:sans-serif; stroke:rgb(122,207,245); font-weight:bold;">
      <polygon style="clip-path:url(#clipPath1); stroke:none;" points=" 8 0 389 0 381 8 0 8" />
      <polygon style="clip-path:url(#clipPath1); stroke:none;" points=" 389 0 389 211 381 219 381 8" />
      <rect x="0" y="8" width="381" style="clip-path:url(#clipPath1); stroke:none;" height="211" />
    </g>
    <g transform="translate(32,242)" style="font-size:11; stroke-linecap:butt; text-rendering:geometricPrecision; font-family:sans-serif; stroke-linejoin:round; font-weight:bold; stroke-miterlimit:0;">
      <polygon style="fill:none; clip-path:url(#clipPath1);" points=" 8 0 389 0 381 8 0 8" />
      <polygon style="fill:none; clip-path:url(#clipPath1);" points=" 389 0 389 211 381 219 381 8" />
      <rect x="0" y="8" width="381" style="clip-path:url(#clipPath1); fill:none;" height="211" />
    </g>
    <g transform="translate(32,250)" style="text-rendering:geometricPrecision; font-size:11; font-weight:bold; font-family:sans-serif;">
      <text x="162" y="16" style="clip-path:url(#clipPath2); stroke:none;" xml:space="preserve">Data Layer</text>
    </g>
    <g transform="translate(32,2)" style="font-size:11; fill:rgb(122,207,245); text-rendering:geometricPrecision; font-family:sans-serif; stroke:rgb(122,207,245); font-weight:bold;">
      <polygon style="clip-path:url(#clipPath4); stroke:none;" points=" 8 0 389 0 381 8 0 8" />
      <polygon style="clip-path:url(#clipPath4); stroke:none;" points=" 389 0 389 201 381 209 381 8" />
      <rect x="0" y="8" width="381" style="clip-path:url(#clipPath4); stroke:none;" height="201" />
    </g>
    <g transform="translate(32,2)" style="font-size:11; stroke-linecap:butt; text-rendering:geometricPrecision; font-family:sans-serif; stroke-linejoin:round; font-weight:bold; stroke-miterlimit:0;">
      <polygon style="fill:none; clip-path:url(#clipPath4);" points=" 8 0 389 0 381 8 0 8" />
      <polygon style="fill:none; clip-path:url(#clipPath4);" points=" 389 0 389 201 381 209 381 8" />
      <rect x="0" y="8" width="381" style="clip-path:url(#clipPath4); fill:none;" height="201" />
    </g>
    <g transform="translate(32,10)" style="text-rendering:geometricPrecision; font-size:11; font-weight:bold; font-family:sans-serif;">
      <text x="144" y="16" style="clip-path:url(#clipPath2); stroke:none;" xml:space="preserve">Application Layer</text>
    </g>
    <g transform="translate(42,272)" style="font-size:11; fill:rgb(122,207,245); text-rendering:geometricPrecision; font-family:sans-serif; stroke:rgb(122,207,245); font-weight:bold;">
      <rect x="0" y="0" width="350" style="clip-path:url(#clipPath6); stroke:none;" height="40" />
    </g>
    <g transform="translate(42,272)" style="font-size:11; stroke-linecap:butt; text-rendering:geometricPrecision; font-family:sans-serif; stroke-linejoin:round; font-weight:bold; stroke-miterlimit:0;">
      <rect x="0" y="0" width="349" style="clip-path:url(#clipPath6); fill:none;" height="39" />
      <line x1="334" x2="344" y1="5" style="stroke-linecap:square; clip-path:url(#clipPath6); fill:none; stroke-linejoin:miter; stroke-miterlimit:10;" y2="5" />
      <line x1="344" x2="344" y1="5" style="stroke-linecap:square; clip-path:url(#clipPath6); fill:none; stroke-linejoin:miter; stroke-miterlimit:10;" y2="21" />
      <line x1="334" x2="344" y1="21" style="stroke-linecap:square; clip-path:url(#clipPath6); fill:none; stroke-linejoin:miter; stroke-miterlimit:10;" y2="21" />
      <line x1="334" x2="334" y1="5" style="stroke-linecap:square; clip-path:url(#clipPath6); fill:none; stroke-linejoin:miter; stroke-miterlimit:10;" y2="8" />
      <rect x="331" y="8" width="7" style="stroke-linecap:square; clip-path:url(#clipPath6); fill:none; stroke-linejoin:miter; stroke-miterlimit:10;" height="4" />
      <line x1="334" x2="334" y1="12" style="stroke-linecap:square; clip-path:url(#clipPath6); fill:none; stroke-linejoin:miter; stroke-miterlimit:10;" y2="14" />
      <rect x="331" y="14" width="7" style="stroke-linecap:square; clip-path:url(#clipPath6); fill:none; stroke-linejoin:miter; stroke-miterlimit:10;" height="4" />
      <line x1="334" x2="334" y1="18" style="stroke-linecap:square; clip-path:url(#clipPath6); fill:none; stroke-linejoin:miter; stroke-miterlimit:10;" y2="21" />
    </g>
    <g style="text-rendering:geometricPrecision; font-size:11; font-family:sans-serif;" transform="translate(42,272)">
      <text x="122" y="15" style="clip-path:url(#clipPath7); stroke:none;" xml:space="preserve">&lt;&lt;component&gt;&gt;</text>
      <text x="127" y="30" style="clip-path:url(#clipPath7); stroke:none; font-weight:bold;" xml:space="preserve">Service Layer</text>
    </g>
    <g transform="translate(42,332)" style="font-size:11; fill:rgb(122,207,245); text-rendering:geometricPrecision; font-family:sans-serif; stroke:rgb(122,207,245); font-weight:bold;">
      <rect x="0" y="0" width="350" style="clip-path:url(#clipPath6); stroke:none;" height="40" />
    </g>
    <g transform="translate(42,332)" style="font-size:11; stroke-linecap:butt; text-rendering:geometricPrecision; font-family:sans-serif; stroke-linejoin:round; font-weight:bold; stroke-miterlimit:0;">
      <rect x="0" y="0" width="349" style="clip-path:url(#clipPath6); fill:none;" height="39" />
      <line x1="334" x2="344" y1="5" style="stroke-linecap:square; clip-path:url(#clipPath6); fill:none; stroke-linejoin:miter; stroke-miterlimit:10;" y2="5" />
      <line x1="344" x2="344" y1="5" style="stroke-linecap:square; clip-path:url(#clipPath6); fill:none; stroke-linejoin:miter; stroke-miterlimit:10;" y2="21" />
      <line x1="334" x2="344" y1="21" style="stroke-linecap:square; clip-path:url(#clipPath6); fill:none; stroke-linejoin:miter; stroke-miterlimit:10;" y2="21" />
      <line x1="334" x2="334" y1="5" style="stroke-linecap:square; clip-path:url(#clipPath6); fill:none; stroke-linejoin:miter; stroke-miterlimit:10;" y2="8" />
      <rect x="331" y="8" width="7" style="stroke-linecap:square; clip-path:url(#clipPath6); fill:none; stroke-linejoin:miter; stroke-miterlimit:10;" height="4" />
      <line x1="334" x2="334" y1="12" style="stroke-linecap:square; clip-path:url(#clipPath6); fill:none; stroke-linejoin:miter; stroke-miterlimit:10;" y2="14" />
      <rect x="331" y="14" width="7" style="stroke-linecap:square; clip-path:url(#clipPath6); fill:none; stroke-linejoin:miter; stroke-miterlimit:10;" height="4" />
      <line x1="334" x2="334" y1="18" style="stroke-linecap:square; clip-path:url(#clipPath6); fill:none; stroke-linejoin:miter; stroke-miterlimit:10;" y2="21" />
    </g>
    <g style="text-rendering:geometricPrecision; font-size:11; font-family:sans-serif;" transform="translate(42,332)">
      <text x="122" y="15" style="clip-path:url(#clipPath7); stroke:none;" xml:space="preserve">&lt;&lt;component&gt;&gt;</text>
      <text x="114" y="30" style="clip-path:url(#clipPath7); stroke:none; font-weight:bold;" xml:space="preserve">Data Access Layer</text>
    </g>
    <g transform="translate(42,392)" style="font-size:11; fill:rgb(122,207,245); text-rendering:geometricPrecision; font-family:sans-serif; stroke:rgb(122,207,245); font-weight:bold;">
      <rect x="0" y="0" width="350" style="clip-path:url(#clipPath6); stroke:none;" height="40" />
    </g>
    <g transform="translate(42,392)" style="font-size:11; stroke-linecap:butt; text-rendering:geometricPrecision; font-family:sans-serif; stroke-linejoin:round; font-weight:bold; stroke-miterlimit:0;">
      <rect x="0" y="0" width="349" style="clip-path:url(#clipPath6); fill:none;" height="39" />
      <line x1="334" x2="344" y1="5" style="stroke-linecap:square; clip-path:url(#clipPath6); fill:none; stroke-linejoin:miter; stroke-miterlimit:10;" y2="5" />
      <line x1="344" x2="344" y1="5" style="stroke-linecap:square; clip-path:url(#clipPath6); fill:none; stroke-linejoin:miter; stroke-miterlimit:10;" y2="21" />
      <line x1="334" x2="344" y1="21" style="stroke-linecap:square; clip-path:url(#clipPath6); fill:none; stroke-linejoin:miter; stroke-miterlimit:10;" y2="21" />
      <line x1="334" x2="334" y1="5" style="stroke-linecap:square; clip-path:url(#clipPath6); fill:none; stroke-linejoin:miter; stroke-miterlimit:10;" y2="8" />
      <rect x="331" y="8" width="7" style="stroke-linecap:square; clip-path:url(#clipPath6); fill:none; stroke-linejoin:miter; stroke-miterlimit:10;" height="4" />
      <line x1="334" x2="334" y1="12" style="stroke-linecap:square; clip-path:url(#clipPath6); fill:none; stroke-linejoin:miter; stroke-miterlimit:10;" y2="14" />
      <rect x="331" y="14" width="7" style="stroke-linecap:square; clip-path:url(#clipPath6); fill:none; stroke-linejoin:miter; stroke-miterlimit:10;" height="4" />
      <line x1="334" x2="334" y1="18" style="stroke-linecap:square; clip-path:url(#clipPath6); fill:none; stroke-linejoin:miter; stroke-miterlimit:10;" y2="21" />
    </g>
    <g style="text-rendering:geometricPrecision; font-size:11; font-family:sans-serif;" transform="translate(42,392)">
      <text x="122" y="15" style="clip-path:url(#clipPath7); stroke:none;" xml:space="preserve">&lt;&lt;component&gt;&gt;</text>
      <text x="134" y="30" style="clip-path:url(#clipPath7); stroke:none; font-weight:bold;" xml:space="preserve">Data Layer</text>
    </g>
    <g transform="translate(42,132)" style="font-size:11; fill:rgb(122,207,245); text-rendering:geometricPrecision; font-family:sans-serif; stroke:rgb(122,207,245); font-weight:bold;">
      <rect x="0" y="0" width="350" style="clip-path:url(#clipPath6); stroke:none;" height="40" />
    </g>
    <g transform="translate(42,132)" style="font-size:11; stroke-linecap:butt; text-rendering:geometricPrecision; font-family:sans-serif; stroke-linejoin:round; font-weight:bold; stroke-miterlimit:0;">
      <rect x="0" y="0" width="349" style="clip-path:url(#clipPath6); fill:none;" height="39" />
      <line x1="334" x2="344" y1="5" style="stroke-linecap:square; clip-path:url(#clipPath6); fill:none; stroke-linejoin:miter; stroke-miterlimit:10;" y2="5" />
      <line x1="344" x2="344" y1="5" style="stroke-linecap:square; clip-path:url(#clipPath6); fill:none; stroke-linejoin:miter; stroke-miterlimit:10;" y2="21" />
      <line x1="334" x2="344" y1="21" style="stroke-linecap:square; clip-path:url(#clipPath6); fill:none; stroke-linejoin:miter; stroke-miterlimit:10;" y2="21" />
      <line x1="334" x2="334" y1="5" style="stroke-linecap:square; clip-path:url(#clipPath6); fill:none; stroke-linejoin:miter; stroke-miterlimit:10;" y2="8" />
      <rect x="331" y="8" width="7" style="stroke-linecap:square; clip-path:url(#clipPath6); fill:none; stroke-linejoin:miter; stroke-miterlimit:10;" height="4" />
      <line x1="334" x2="334" y1="12" style="stroke-linecap:square; clip-path:url(#clipPath6); fill:none; stroke-linejoin:miter; stroke-miterlimit:10;" y2="14" />
      <rect x="331" y="14" width="7" style="stroke-linecap:square; clip-path:url(#clipPath6); fill:none; stroke-linejoin:miter; stroke-miterlimit:10;" height="4" />
      <line x1="334" x2="334" y1="18" style="stroke-linecap:square; clip-path:url(#clipPath6); fill:none; stroke-linejoin:miter; stroke-miterlimit:10;" y2="21" />
    </g>
    <g style="text-rendering:geometricPrecision; font-size:11; font-family:sans-serif;" transform="translate(42,132)">
      <text x="122" y="15" style="clip-path:url(#clipPath7); stroke:none;" xml:space="preserve">&lt;&lt;component&gt;&gt;</text>
      <text x="133" y="30" style="clip-path:url(#clipPath7); stroke:none; font-weight:bold;" xml:space="preserve">Application</text>
    </g>
    <g transform="translate(42,42)" style="font-size:11; fill:rgb(122,207,245); text-rendering:geometricPrecision; font-family:sans-serif; stroke:rgb(122,207,245); font-weight:bold;">
      <rect x="0" y="0" width="350" style="clip-path:url(#clipPath6); stroke:none;" height="40" />
    </g>
    <g transform="translate(42,42)" style="font-size:11; stroke-linecap:butt; text-rendering:geometricPrecision; font-family:sans-serif; stroke-linejoin:round; font-weight:bold; stroke-miterlimit:0;">
      <rect x="0" y="0" width="349" style="clip-path:url(#clipPath6); fill:none;" height="39" />
      <line x1="334" x2="344" y1="5" style="stroke-linecap:square; clip-path:url(#clipPath6); fill:none; stroke-linejoin:miter; stroke-miterlimit:10;" y2="5" />
      <line x1="344" x2="344" y1="5" style="stroke-linecap:square; clip-path:url(#clipPath6); fill:none; stroke-linejoin:miter; stroke-miterlimit:10;" y2="21" />
      <line x1="334" x2="344" y1="21" style="stroke-linecap:square; clip-path:url(#clipPath6); fill:none; stroke-linejoin:miter; stroke-miterlimit:10;" y2="21" />
      <line x1="334" x2="334" y1="5" style="stroke-linecap:square; clip-path:url(#clipPath6); fill:none; stroke-linejoin:miter; stroke-miterlimit:10;" y2="8" />
      <rect x="331" y="8" width="7" style="stroke-linecap:square; clip-path:url(#clipPath6); fill:none; stroke-linejoin:miter; stroke-miterlimit:10;" height="4" />
      <line x1="334" x2="334" y1="12" style="stroke-linecap:square; clip-path:url(#clipPath6); fill:none; stroke-linejoin:miter; stroke-miterlimit:10;" y2="14" />
      <rect x="331" y="14" width="7" style="stroke-linecap:square; clip-path:url(#clipPath6); fill:none; stroke-linejoin:miter; stroke-miterlimit:10;" height="4" />
      <line x1="334" x2="334" y1="18" style="stroke-linecap:square; clip-path:url(#clipPath6); fill:none; stroke-linejoin:miter; stroke-miterlimit:10;" y2="21" />
    </g>
    <g style="text-rendering:geometricPrecision; font-size:11; font-family:sans-serif;" transform="translate(42,42)">
      <text x="122" y="15" style="clip-path:url(#clipPath7); stroke:none;" xml:space="preserve">&lt;&lt;component&gt;&gt;</text>
      <text x="125" y="30" style="clip-path:url(#clipPath7); stroke:none; font-weight:bold;" xml:space="preserve">User Interface</text>
    </g>
    <g transform="translate(172,161)" style="font-size:11; stroke-linecap:butt; text-rendering:geometricPrecision; font-family:sans-serif; stroke-linejoin:round;">
      <line x1="50" x2="50" y1="80" style="clip-path:url(#clipPath8); fill:none;" y2="50" />
    </g>
    <g transform="translate(162,32)" style="font-size:11; stroke-linecap:butt; text-rendering:geometricPrecision; font-family:sans-serif; stroke-linejoin:round;">
      <line x1="50" x2="50" y1="74" style="clip-path:url(#clipPath9); fill:none;" y2="99" />
      <polygon style="clip-path:url(#clipPath9); stroke:none;" points=" 50 50 44 62 50 74 56 62" />
      <polygon style="fill:none; clip-path:url(#clipPath9);" points=" 50 50 44 62 50 74 56 62" />
    </g>
    <g transform="translate(-48,102)" style="font-size:11; stroke-linecap:butt; text-rendering:geometricPrecision; font-family:sans-serif; stroke-linejoin:round;">
      <line x1="65" x2="50" y1="50" style="clip-path:url(#clipPath10); fill:none;" y2="50" />
      <line x1="50" x2="50" y1="50" style="clip-path:url(#clipPath10); fill:none;" y2="190" />
      <line x1="50" x2="89" y1="190" style="clip-path:url(#clipPath10); fill:none;" y2="190" />
      <polygon style="fill:none; clip-path:url(#clipPath10);" points=" 89 50 77 44 65 50 77 56" />
    </g>
    <g transform="translate(-48,102)" style="font-size:11; stroke-linecap:butt; text-rendering:geometricPrecision; font-family:sans-serif; stroke-linejoin:round;">
      <line x1="65" x2="50" y1="50" style="clip-path:url(#clipPath11); fill:none;" y2="50" />
      <line x1="50" x2="50" y1="50" style="clip-path:url(#clipPath11); fill:none;" y2="250" />
      <line x1="50" x2="89" y1="250" style="clip-path:url(#clipPath11); fill:none;" y2="250" />
      <polygon style="fill:none; clip-path:url(#clipPath11);" points=" 89 50 77 44 65 50 77 56" />
    </g>
    <g transform="translate(-48,102)" style="font-size:11; stroke-linecap:butt; text-rendering:geometricPrecision; font-family:sans-serif; stroke-linejoin:round;">
      <line x1="65" x2="50" y1="50" style="clip-path:url(#clipPath12); fill:none;" y2="50" />
      <line x1="50" x2="50" y1="50" style="clip-path:url(#clipPath12); fill:none;" y2="310" />
      <line x1="50" x2="89" y1="310" style="clip-path:url(#clipPath12); fill:none;" y2="310" />
      <polygon style="fill:none; clip-path:url(#clipPath12);" points=" 89 50 77 44 65 50 77 56" />
    </g>
  </g>
</svg>
