<?xml version="1.0" encoding="UTF-8"?>

<!DOCTYPE svg PUBLIC '-//W3C//DTD SVG 1.0//EN' 'http://www.w3.org/TR/2001/REC-SVG-20010904/DTD/svg10.dtd'>
<svg style="fill-opacity:1; color-rendering:auto; color-interpolation:auto; stroke:black; text-rendering:auto; stroke-linecap:square; stroke-miterlimit:10; stroke-opacity:1; shape-rendering:auto; fill:black; stroke-dasharray:none; font-weight:normal; stroke-width:1; font-family:&apos;Dialog&apos;; font-style:normal; stroke-linejoin:miter; font-size:12; stroke-dashoffset:0; image-rendering:auto;" xmlns="http://www.w3.org/2000/svg" width="972" xmlns:xlink="http://www.w3.org/1999/xlink" height="646">
  <!--Generated by the Batik Graphics2D SVG Generator-->
  <defs id="genericDefs" />
  <g>
    <defs id="defs1">
      <clipPath clipPathUnits="userSpaceOnUse" id="clipPath1">
        <path d="M-3 -3 L907 -3 L907 487 L-3 487 L-3 -3 Z" />
      </clipPath>
      <clipPath clipPathUnits="userSpaceOnUse" id="clipPath2">
        <path d="M-3 -3 L37 -3 L37 67 L-3 67 L-3 -3 Z" />
      </clipPath>
      <clipPath clipPathUnits="userSpaceOnUse" id="clipPath3">
        <path d="M-3 -3 L97 -3 L97 47 L-3 47 L-3 -3 Z" />
      </clipPath>
      <clipPath clipPathUnits="userSpaceOnUse" id="clipPath4">
        <path d="M0 0 L90 0 L90 15 L0 15 L0 0 Z" />
      </clipPath>
      <clipPath clipPathUnits="userSpaceOnUse" id="clipPath5">
        <path d="M-3 -3 L207 -3 L207 127 L-3 127 L-3 -3 Z" />
      </clipPath>
      <clipPath clipPathUnits="userSpaceOnUse" id="clipPath6">
        <path d="M-3 -3 L127 -3 L127 67 L-3 67 L-3 -3 Z" />
      </clipPath>
      <clipPath clipPathUnits="userSpaceOnUse" id="clipPath7">
        <path d="M-3 -3 L117 -3 L117 67 L-3 67 L-3 -3 Z" />
      </clipPath>
      <clipPath clipPathUnits="userSpaceOnUse" id="clipPath8">
        <path d="M-3 -3 L107 -3 L107 67 L-3 67 L-3 -3 Z" />
      </clipPath>
      <clipPath clipPathUnits="userSpaceOnUse" id="clipPath9">
        <path d="M-3 -3 L87 -3 L87 47 L-3 47 L-3 -3 Z" />
      </clipPath>
      <clipPath clipPathUnits="userSpaceOnUse" id="clipPath10">
        <path d="M0 0 L200 0 L200 15 L0 15 L0 0 Z" />
      </clipPath>
      <clipPath clipPathUnits="userSpaceOnUse" id="clipPath11">
        <path d="M0 0 L80 0 L80 40 L0 40 L0 0 Z" />
      </clipPath>
      <clipPath clipPathUnits="userSpaceOnUse" id="clipPath12">
        <path d="M0 0 L100 0 L100 60 L0 60 L0 0 Z" />
      </clipPath>
      <clipPath clipPathUnits="userSpaceOnUse" id="clipPath13">
        <path d="M0 0 L120 0 L120 60 L0 60 L0 0 Z" />
      </clipPath>
      <clipPath clipPathUnits="userSpaceOnUse" id="clipPath14">
        <path d="M0 0 L110 0 L110 60 L0 60 L0 0 Z" />
      </clipPath>
      <clipPath clipPathUnits="userSpaceOnUse" id="clipPath15">
        <path d="M0 0 L900 0 L900 15 L0 15 L0 0 Z" />
      </clipPath>
      <clipPath clipPathUnits="userSpaceOnUse" id="clipPath16">
        <path d="M0 0 L43 0 L43 15 L0 15 L0 0 Z" />
      </clipPath>
      <clipPath clipPathUnits="userSpaceOnUse" id="clipPath17">
        <path d="M0 0 L394 0 L394 294 L0 294 L0 0 Z" />
      </clipPath>
      <clipPath clipPathUnits="userSpaceOnUse" id="clipPath18">
        <path d="M0 0 L254 0 L254 294 L0 294 L0 0 Z" />
      </clipPath>
      <clipPath clipPathUnits="userSpaceOnUse" id="clipPath19">
        <path d="M0 0 L144 0 L144 297 L0 297 L0 0 Z" />
      </clipPath>
      <clipPath clipPathUnits="userSpaceOnUse" id="clipPath20">
        <path d="M0 0 L294 0 L294 307 L0 307 L0 0 Z" />
      </clipPath>
      <clipPath clipPathUnits="userSpaceOnUse" id="clipPath21">
        <path d="M0 0 L394 0 L394 295 L0 295 L0 0 Z" />
      </clipPath>
      <clipPath clipPathUnits="userSpaceOnUse" id="clipPath22">
        <path d="M0 0 L104 0 L104 284 L0 284 L0 0 Z" />
      </clipPath>
      <clipPath clipPathUnits="userSpaceOnUse" id="clipPath23">
        <path d="M0 0 L494 0 L494 164 L0 164 L0 0 Z" />
      </clipPath>
      <clipPath clipPathUnits="userSpaceOnUse" id="clipPath24">
        <path d="M0 0 L354 0 L354 164 L0 164 L0 0 Z" />
      </clipPath>
      <clipPath clipPathUnits="userSpaceOnUse" id="clipPath25">
        <path d="M0 0 L234 0 L234 164 L0 164 L0 0 Z" />
      </clipPath>
      <clipPath clipPathUnits="userSpaceOnUse" id="clipPath26">
        <path d="M0 0 L104 0 L104 164 L0 164 L0 0 Z" />
      </clipPath>
      <clipPath clipPathUnits="userSpaceOnUse" id="clipPath27">
        <path d="M0 0 L224 0 L224 164 L0 164 L0 0 Z" />
      </clipPath>
      <clipPath clipPathUnits="userSpaceOnUse" id="clipPath28">
        <path d="M0 0 L484 0 L484 164 L0 164 L0 0 Z" />
      </clipPath>
      <clipPath clipPathUnits="userSpaceOnUse" id="clipPath29">
        <path d="M0 0 L554 0 L554 104 L0 104 L0 0 Z" />
      </clipPath>
      <clipPath clipPathUnits="userSpaceOnUse" id="clipPath30">
        <path d="M0 0 L104 0 L104 234 L0 234 L0 0 Z" />
      </clipPath>
      <clipPath clipPathUnits="userSpaceOnUse" id="clipPath31">
        <path d="M0 0 L296 0 L296 104 L0 104 L0 0 Z" />
      </clipPath>
      <clipPath clipPathUnits="userSpaceOnUse" id="clipPath32">
        <path d="M0 0 L374 0 L374 236 L0 236 L0 0 Z" />
      </clipPath>
      <clipPath clipPathUnits="userSpaceOnUse" id="clipPath33">
        <path d="M0 0 L275 0 L275 104 L0 104 L0 0 Z" />
      </clipPath>
      <clipPath clipPathUnits="userSpaceOnUse" id="clipPath34">
        <path d="M0 0 L104 0 L104 180 L0 180 L0 0 Z" />
      </clipPath>
      <clipPath clipPathUnits="userSpaceOnUse" id="clipPath35">
        <path d="M0 0 L104 0 L104 177 L0 177 L0 0 Z" />
      </clipPath>
      <clipPath clipPathUnits="userSpaceOnUse" id="clipPath36">
        <path d="M0 0 L104 0 L104 175 L0 175 L0 0 Z" />
      </clipPath>
      <clipPath clipPathUnits="userSpaceOnUse" id="clipPath37">
        <path d="M0 0 L81 0 L81 15 L0 15 L0 0 Z" />
      </clipPath>
      <clipPath clipPathUnits="userSpaceOnUse" id="clipPath38">
        <path d="M0 0 L76 0 L76 15 L0 15 L0 0 Z" />
      </clipPath>
      <clipPath clipPathUnits="userSpaceOnUse" id="clipPath39">
        <path d="M0 0 L79 0 L79 15 L0 15 L0 0 Z" />
      </clipPath>
      <clipPath clipPathUnits="userSpaceOnUse" id="clipPath40">
        <path d="M0 0 L85 0 L85 15 L0 15 L0 0 Z" />
      </clipPath>
    </defs>
    <g style="fill:white; text-rendering:geometricPrecision; stroke:white;">
      <rect x="0" y="0" width="972" style="stroke:none;" height="646" />
    </g>
    <g transform="translate(68,2)" style="font-size:11; fill:rgb(122,207,245); text-rendering:geometricPrecision; font-family:sans-serif; stroke:rgb(122,207,245);">
      <rect x="0" y="0" width="899" style="clip-path:url(#clipPath1); stroke:none;" height="479" />
    </g>
    <g transform="translate(68,2)" style="font-size:11; stroke-linecap:butt; text-rendering:geometricPrecision; font-family:sans-serif; stroke-linejoin:round; stroke-miterlimit:0;">
      <rect x="0" y="0" width="899" style="clip-path:url(#clipPath1); fill:none;" height="479" />
    </g>
    <g transform="translate(8,52)" style="font-size:11; fill:rgb(122,207,245); text-rendering:geometricPrecision; font-family:sans-serif; stroke:rgb(122,207,245);">
      <circle style="clip-path:url(#clipPath2); stroke:none;" r="7.5" cx="14.5" cy="7.5" />
    </g>
    <g transform="translate(8,52)" style="font-size:11; stroke-linecap:butt; text-rendering:geometricPrecision; font-family:sans-serif; stroke-linejoin:round; stroke-miterlimit:0;">
      <circle style="fill:none; clip-path:url(#clipPath2);" r="7.5" cx="14.5" cy="7.5" />
      <line x1="15" x2="15" y1="15" style="clip-path:url(#clipPath2); fill:none;" y2="40" />
      <line x1="0" x2="30" y1="24" style="clip-path:url(#clipPath2); fill:none;" y2="24" />
      <line x1="15" x2="0" y1="40" style="clip-path:url(#clipPath2); fill:none;" y2="60" />
      <line x1="15" x2="30" y1="40" style="clip-path:url(#clipPath2); fill:none;" y2="60" />
    </g>
    <g transform="translate(138,572)" style="font-size:11; fill:rgb(122,207,245); text-rendering:geometricPrecision; font-family:sans-serif; stroke:rgb(122,207,245);">
      <ellipse style="clip-path:url(#clipPath3); stroke:none;" rx="44.5" cx="44.5" ry="19.5" cy="19.5" />
    </g>
    <g transform="translate(138,572)" style="font-size:11; stroke-linecap:butt; text-rendering:geometricPrecision; font-family:sans-serif; stroke-dasharray:8;">
      <ellipse style="clip-path:url(#clipPath3); fill:none;" rx="44.5" cx="44.5" ry="19.5" cy="19.5" />
    </g>
    <g style="text-rendering:geometricPrecision; font-size:11; font-family:sans-serif;" transform="translate(138,582)">
      <text x="13" y="12" style="clip-path:url(#clipPath4); stroke:none;" xml:space="preserve">Data Service</text>
    </g>
    <g transform="translate(358,522)" style="font-size:11; fill:rgb(122,207,245); text-rendering:geometricPrecision; font-family:sans-serif; stroke:rgb(122,207,245);">
      <rect x="0" y="0" width="199" style="clip-path:url(#clipPath5); stroke:none;" height="119" />
    </g>
    <g transform="translate(358,522)" style="font-size:11; stroke-linecap:butt; text-rendering:geometricPrecision; font-family:sans-serif; stroke-linejoin:round; stroke-miterlimit:0;">
      <rect x="0" y="0" width="199" style="clip-path:url(#clipPath5); fill:none;" height="119" />
    </g>
    <g transform="translate(668,572)" style="font-size:11; fill:rgb(122,207,245); text-rendering:geometricPrecision; font-family:sans-serif; stroke:rgb(122,207,245);">
      <ellipse style="clip-path:url(#clipPath3); stroke:none;" rx="44.5" cx="44.5" ry="19.5" cy="19.5" />
    </g>
    <g transform="translate(668,572)" style="font-size:11; stroke-linecap:butt; text-rendering:geometricPrecision; font-family:sans-serif; stroke-dasharray:8;">
      <ellipse style="clip-path:url(#clipPath3); fill:none;" rx="44.5" cx="44.5" ry="19.5" cy="19.5" />
    </g>
    <g style="text-rendering:geometricPrecision; font-size:11; font-family:sans-serif;" transform="translate(668,582)">
      <text x="12" y="12" style="clip-path:url(#clipPath4); stroke:none;" xml:space="preserve">CMS Service</text>
    </g>
    <g transform="translate(78,172)" style="font-size:11; fill:rgb(122,207,245); text-rendering:geometricPrecision; font-family:sans-serif; stroke:rgb(122,207,245);">
      <ellipse style="clip-path:url(#clipPath6); stroke:none;" rx="60" cx="60" ry="30" cy="30" />
    </g>
    <g transform="translate(78,172)" style="font-size:11; stroke-linecap:butt; text-rendering:geometricPrecision; font-family:sans-serif; stroke-linejoin:round; stroke-miterlimit:0;">
      <ellipse style="clip-path:url(#clipPath6); fill:none;" rx="60" cx="60" ry="30" cy="30" />
    </g>
    <g transform="translate(218,172)" style="font-size:11; fill:rgb(122,207,245); text-rendering:geometricPrecision; font-family:sans-serif; stroke:rgb(122,207,245);">
      <ellipse style="clip-path:url(#clipPath7); stroke:none;" rx="55" cx="55" ry="30" cy="30" />
    </g>
    <g transform="translate(218,172)" style="font-size:11; stroke-linecap:butt; text-rendering:geometricPrecision; font-family:sans-serif; stroke-linejoin:round; stroke-miterlimit:0;">
      <ellipse style="clip-path:url(#clipPath7); fill:none;" rx="55" cx="55" ry="30" cy="30" />
    </g>
    <g transform="translate(348,172)" style="font-size:11; fill:rgb(122,207,245); text-rendering:geometricPrecision; font-family:sans-serif; stroke:rgb(122,207,245);">
      <ellipse style="clip-path:url(#clipPath8); stroke:none;" rx="50" cx="50" ry="30" cy="30" />
    </g>
    <g transform="translate(348,172)" style="font-size:11; stroke-linecap:butt; text-rendering:geometricPrecision; font-family:sans-serif; stroke-linejoin:round; stroke-miterlimit:0;">
      <ellipse style="clip-path:url(#clipPath8); fill:none;" rx="50" cx="50" ry="30" cy="30" />
    </g>
    <g transform="translate(468,172)" style="font-size:11; fill:rgb(122,207,245); text-rendering:geometricPrecision; font-family:sans-serif; stroke:rgb(122,207,245);">
      <ellipse style="clip-path:url(#clipPath7); stroke:none;" rx="55" cx="55" ry="30" cy="30" />
    </g>
    <g transform="translate(468,172)" style="font-size:11; stroke-linecap:butt; text-rendering:geometricPrecision; font-family:sans-serif; stroke-linejoin:round; stroke-miterlimit:0;">
      <ellipse style="clip-path:url(#clipPath7); fill:none;" rx="55" cx="55" ry="30" cy="30" />
    </g>
    <g transform="translate(588,172)" style="font-size:11; fill:rgb(122,207,245); text-rendering:geometricPrecision; font-family:sans-serif; stroke:rgb(122,207,245);">
      <ellipse style="clip-path:url(#clipPath6); stroke:none;" rx="60" cx="60" ry="30" cy="30" />
    </g>
    <g transform="translate(588,172)" style="font-size:11; stroke-linecap:butt; text-rendering:geometricPrecision; font-family:sans-serif; stroke-linejoin:round; stroke-miterlimit:0;">
      <ellipse style="clip-path:url(#clipPath6); fill:none;" rx="60" cx="60" ry="30" cy="30" />
    </g>
    <g transform="translate(718,172)" style="font-size:11; fill:rgb(122,207,245); text-rendering:geometricPrecision; font-family:sans-serif; stroke:rgb(122,207,245);">
      <ellipse style="clip-path:url(#clipPath6); stroke:none;" rx="60" cx="60" ry="30" cy="30" />
    </g>
    <g transform="translate(718,172)" style="font-size:11; stroke-linecap:butt; text-rendering:geometricPrecision; font-family:sans-serif; stroke-linejoin:round; stroke-miterlimit:0;">
      <ellipse style="clip-path:url(#clipPath6); fill:none;" rx="60" cx="60" ry="30" cy="30" />
    </g>
    <g transform="translate(848,172)" style="font-size:11; fill:rgb(122,207,245); text-rendering:geometricPrecision; font-family:sans-serif; stroke:rgb(122,207,245);">
      <ellipse style="clip-path:url(#clipPath7); stroke:none;" rx="55" cx="55" ry="30" cy="30" />
    </g>
    <g transform="translate(848,172)" style="font-size:11; stroke-linecap:butt; text-rendering:geometricPrecision; font-family:sans-serif; stroke-linejoin:round; stroke-miterlimit:0;">
      <ellipse style="clip-path:url(#clipPath7); fill:none;" rx="55" cx="55" ry="30" cy="30" />
    </g>
    <g transform="translate(338,302)" style="font-size:11; fill:rgb(122,207,245); text-rendering:geometricPrecision; font-family:sans-serif; stroke:rgb(122,207,245);">
      <ellipse style="clip-path:url(#clipPath9); stroke:none;" rx="40" cx="40" ry="20" cy="20" />
    </g>
    <g transform="translate(338,302)" style="font-size:11; stroke-linecap:butt; text-rendering:geometricPrecision; font-family:sans-serif; stroke-linejoin:round; stroke-miterlimit:0;">
      <ellipse style="clip-path:url(#clipPath9); fill:none;" rx="40" cx="40" ry="20" cy="20" />
    </g>
    <g transform="translate(458,302)" style="font-size:11; fill:rgb(122,207,245); text-rendering:geometricPrecision; font-family:sans-serif; stroke:rgb(122,207,245);">
      <ellipse style="clip-path:url(#clipPath9); stroke:none;" rx="40" cx="40" ry="20" cy="20" />
    </g>
    <g transform="translate(458,302)" style="font-size:11; stroke-linecap:butt; text-rendering:geometricPrecision; font-family:sans-serif; stroke-linejoin:round; stroke-miterlimit:0;">
      <ellipse style="clip-path:url(#clipPath9); fill:none;" rx="40" cx="40" ry="20" cy="20" />
    </g>
    <g transform="translate(578,302)" style="font-size:11; fill:rgb(122,207,245); text-rendering:geometricPrecision; font-family:sans-serif; stroke:rgb(122,207,245);">
      <ellipse style="clip-path:url(#clipPath9); stroke:none;" rx="40" cx="40" ry="20" cy="20" />
    </g>
    <g transform="translate(578,302)" style="font-size:11; stroke-linecap:butt; text-rendering:geometricPrecision; font-family:sans-serif; stroke-linejoin:round; stroke-miterlimit:0;">
      <ellipse style="clip-path:url(#clipPath9); fill:none;" rx="40" cx="40" ry="20" cy="20" />
    </g>
    <g transform="translate(428,402)" style="font-size:11; fill:rgb(122,207,245); text-rendering:geometricPrecision; font-family:sans-serif; stroke:rgb(122,207,245);">
      <ellipse style="clip-path:url(#clipPath9); stroke:none;" rx="40" cx="40" ry="20" cy="20" />
    </g>
    <g transform="translate(428,402)" style="font-size:11; stroke-linecap:butt; text-rendering:geometricPrecision; font-family:sans-serif; stroke-linejoin:round; stroke-miterlimit:0;">
      <ellipse style="clip-path:url(#clipPath9); fill:none;" rx="40" cx="40" ry="20" cy="20" />
    </g>
    <g transform="translate(488,72)" style="font-size:11; fill:rgb(122,207,245); text-rendering:geometricPrecision; font-family:sans-serif; stroke:rgb(122,207,245);">
      <ellipse style="clip-path:url(#clipPath9); stroke:none;" rx="40" cx="40" ry="20" cy="20" />
    </g>
    <g transform="translate(488,72)" style="font-size:11; stroke-linecap:butt; text-rendering:geometricPrecision; font-family:sans-serif; stroke-linejoin:round; stroke-miterlimit:0;">
      <ellipse style="clip-path:url(#clipPath9); fill:none;" rx="40" cx="40" ry="20" cy="20" />
    </g>
    <g transform="translate(418,572)" style="font-size:11; fill:rgb(122,207,245); text-rendering:geometricPrecision; font-family:sans-serif; stroke:rgb(122,207,245);">
      <ellipse style="clip-path:url(#clipPath9); stroke:none;" rx="40" cx="40" ry="20" cy="20" />
    </g>
    <g transform="translate(418,572)" style="font-size:11; stroke-linecap:butt; text-rendering:geometricPrecision; font-family:sans-serif; stroke-linejoin:round; stroke-miterlimit:0;">
      <ellipse style="clip-path:url(#clipPath9); fill:none;" rx="40" cx="40" ry="20" cy="20" />
    </g>
    <g style="text-rendering:geometricPrecision; font-size:11; font-family:sans-serif;" transform="translate(358,522)">
      <text x="88" y="12" style="clip-path:url(#clipPath10); stroke:none;" xml:space="preserve">PCL</text>
    </g>
    <g style="text-rendering:geometricPrecision; font-size:11; font-family:sans-serif;" transform="translate(418,572)">
      <text x="14" y="24" style="clip-path:url(#clipPath11); stroke:none;" xml:space="preserve">Data Load</text>
    </g>
    <g style="text-rendering:geometricPrecision; font-size:11; font-family:sans-serif;" transform="translate(488,72)">
      <text x="10" y="24" style="clip-path:url(#clipPath11); stroke:none;" xml:space="preserve">Show Menu</text>
    </g>
    <g style="text-rendering:geometricPrecision; font-size:11; font-family:sans-serif;" transform="translate(428,402)">
      <text x="28" y="17" style="clip-path:url(#clipPath11); stroke:none;" xml:space="preserve">Data</text>
      <text x="10" y="32" style="clip-path:url(#clipPath11); stroke:none;" xml:space="preserve">Instantiation</text>
    </g>
    <g style="text-rendering:geometricPrecision; font-size:11; font-family:sans-serif;" transform="translate(578,302)">
      <text x="9" y="24" style="clip-path:url(#clipPath11); stroke:none;" xml:space="preserve">Image Zoom</text>
    </g>
    <g style="text-rendering:geometricPrecision; font-size:11; font-family:sans-serif;" transform="translate(458,302)">
      <text x="14" y="17" style="clip-path:url(#clipPath11); stroke:none;" xml:space="preserve">Day Detail</text>
      <text x="27" y="32" style="clip-path:url(#clipPath11); stroke:none;" xml:space="preserve">View</text>
    </g>
    <g style="text-rendering:geometricPrecision; font-size:11; font-family:sans-serif;" transform="translate(348,172)">
      <text x="12" y="34" style="clip-path:url(#clipPath12); stroke:none;" xml:space="preserve">Presenters Info</text>
    </g>
    <g style="text-rendering:geometricPrecision; font-size:11; font-family:sans-serif;" transform="translate(338,302)">
      <text x="16" y="24" style="clip-path:url(#clipPath11); stroke:none;" xml:space="preserve">Presenter</text>
    </g>
    <g style="text-rendering:geometricPrecision; font-size:11; font-family:sans-serif;" transform="translate(78,172)">
      <text x="38" y="34" style="clip-path:url(#clipPath13); stroke:none;" xml:space="preserve">Map Info</text>
    </g>
    <g style="text-rendering:geometricPrecision; font-size:11; font-family:sans-serif;" transform="translate(848,172)">
      <text x="21" y="34" style="clip-path:url(#clipPath14); stroke:none;" xml:space="preserve">Contact Page</text>
    </g>
    <g style="text-rendering:geometricPrecision; font-size:11; font-family:sans-serif;" transform="translate(718,172)">
      <text x="11" y="34" style="clip-path:url(#clipPath13); stroke:none;" xml:space="preserve">Frequent Questions</text>
    </g>
    <g style="text-rendering:geometricPrecision; font-size:11; font-family:sans-serif;" transform="translate(588,172)">
      <text x="25" y="34" style="clip-path:url(#clipPath13); stroke:none;" xml:space="preserve">Image Gallery</text>
    </g>
    <g style="text-rendering:geometricPrecision; font-size:11; font-family:sans-serif;" transform="translate(468,172)">
      <text x="32" y="34" style="clip-path:url(#clipPath14); stroke:none;" xml:space="preserve">Calendar</text>
    </g>
    <g style="text-rendering:geometricPrecision; font-size:11; font-family:sans-serif;" transform="translate(218,172)">
      <text x="30" y="34" style="clip-path:url(#clipPath14); stroke:none;" xml:space="preserve">Event Info</text>
    </g>
    <g style="text-rendering:geometricPrecision; font-size:11; font-family:sans-serif;" transform="translate(68,2)">
      <text x="440" y="12" style="clip-path:url(#clipPath15); stroke:none;" xml:space="preserve">App</text>
    </g>
    <g style="text-rendering:geometricPrecision; font-size:11; font-family:sans-serif;" transform="translate(2,112)">
      <text x="10" y="12" style="clip-path:url(#clipPath16); stroke:none;" xml:space="preserve">User</text>
    </g>
    <g transform="translate(88,182)" style="font-size:11; stroke-linecap:butt; text-rendering:geometricPrecision; font-family:sans-serif; stroke-linejoin:round; stroke-dasharray:4;">
      <line x1="50" x2="50" y1="50" style="clip-path:url(#clipPath17); fill:none;" y2="240" />
      <line x1="50" x2="340" y1="240" style="clip-path:url(#clipPath17); fill:none;" y2="240" />
      <line x1="340" x2="328" y1="240" style="clip-path:url(#clipPath17); fill:none; stroke-dasharray:none;" y2="234" />
      <line x1="340" x2="328" y1="240" style="clip-path:url(#clipPath17); fill:none; stroke-dasharray:none;" y2="246" />
    </g>
    <g transform="translate(228,182)" style="font-size:11; stroke-linecap:butt; text-rendering:geometricPrecision; font-family:sans-serif; stroke-linejoin:round; stroke-dasharray:4;">
      <line x1="50" x2="50" y1="50" style="clip-path:url(#clipPath18); fill:none;" y2="240" />
      <line x1="50" x2="200" y1="240" style="clip-path:url(#clipPath18); fill:none;" y2="240" />
      <line x1="200" x2="188" y1="240" style="clip-path:url(#clipPath18); fill:none; stroke-dasharray:none;" y2="234" />
      <line x1="200" x2="188" y1="240" style="clip-path:url(#clipPath18); fill:none; stroke-dasharray:none;" y2="246" />
    </g>
    <g transform="translate(458,179)" style="font-size:11; stroke-linecap:butt; text-rendering:geometricPrecision; font-family:sans-serif; stroke-linejoin:round; stroke-dasharray:4;">
      <line x1="90" x2="90" y1="50" style="clip-path:url(#clipPath19); fill:none;" y2="243" />
      <line x1="90" x2="50" y1="243" style="clip-path:url(#clipPath19); fill:none;" y2="243" />
      <line x1="50" x2="62" y1="243" style="clip-path:url(#clipPath19); fill:none; stroke-dasharray:none;" y2="249" />
      <line x1="50" x2="62" y1="243" style="clip-path:url(#clipPath19); fill:none; stroke-dasharray:none;" y2="237" />
    </g>
    <g transform="translate(458,169)" style="font-size:11; stroke-linecap:butt; text-rendering:geometricPrecision; font-family:sans-serif; stroke-linejoin:round; stroke-dasharray:4;">
      <line x1="240" x2="240" y1="50" style="clip-path:url(#clipPath20); fill:none;" y2="253" />
      <line x1="240" x2="50" y1="253" style="clip-path:url(#clipPath20); fill:none;" y2="253" />
      <line x1="50" x2="62" y1="253" style="clip-path:url(#clipPath20); fill:none; stroke-dasharray:none;" y2="259" />
      <line x1="50" x2="62" y1="253" style="clip-path:url(#clipPath20); fill:none; stroke-dasharray:none;" y2="247" />
    </g>
    <g transform="translate(458,181)" style="font-size:11; stroke-linecap:butt; text-rendering:geometricPrecision; font-family:sans-serif; stroke-linejoin:round; stroke-dasharray:4;">
      <line x1="340" x2="340" y1="50" style="clip-path:url(#clipPath21); fill:none;" y2="241" />
      <line x1="340" x2="50" y1="241" style="clip-path:url(#clipPath21); fill:none;" y2="241" />
      <line x1="50" x2="62" y1="241" style="clip-path:url(#clipPath21); fill:none; stroke-dasharray:none;" y2="247" />
      <line x1="50" x2="62" y1="241" style="clip-path:url(#clipPath21); fill:none; stroke-dasharray:none;" y2="235" />
    </g>
    <g transform="translate(378,172)" style="font-size:11; stroke-linecap:butt; text-rendering:geometricPrecision; font-family:sans-serif; stroke-linejoin:round; stroke-dasharray:4;">
      <line x1="50" x2="50" y1="50" style="clip-path:url(#clipPath22); fill:none;" y2="50" />
      <line x1="50" x2="50" y1="50" style="clip-path:url(#clipPath22); fill:none;" y2="230" />
      <line x1="50" x2="56" y1="230" style="clip-path:url(#clipPath22); fill:none; stroke-dasharray:none;" y2="218" />
      <line x1="50" x2="44" y1="230" style="clip-path:url(#clipPath22); fill:none; stroke-dasharray:none;" y2="218" />
    </g>
    <g transform="translate(88,62)" style="font-size:11; stroke-linecap:butt; text-rendering:geometricPrecision; font-family:sans-serif; stroke-linejoin:round; stroke-dasharray:4;">
      <line x1="440" x2="440" y1="50" style="clip-path:url(#clipPath23); fill:none;" y2="60" />
      <line x1="440" x2="50" y1="60" style="clip-path:url(#clipPath23); fill:none;" y2="60" />
      <line x1="50" x2="50" y1="60" style="clip-path:url(#clipPath23); fill:none;" y2="110" />
      <line x1="50" x2="56" y1="110" style="clip-path:url(#clipPath23); fill:none; stroke-dasharray:none;" y2="98" />
      <line x1="50" x2="44" y1="110" style="clip-path:url(#clipPath23); fill:none; stroke-dasharray:none;" y2="98" />
    </g>
    <g transform="translate(228,62)" style="font-size:11; stroke-linecap:butt; text-rendering:geometricPrecision; font-family:sans-serif; stroke-linejoin:round; stroke-dasharray:4;">
      <line x1="300" x2="300" y1="50" style="clip-path:url(#clipPath24); fill:none;" y2="60" />
      <line x1="300" x2="50" y1="60" style="clip-path:url(#clipPath24); fill:none;" y2="60" />
      <line x1="50" x2="50" y1="60" style="clip-path:url(#clipPath24); fill:none;" y2="110" />
      <line x1="50" x2="56" y1="110" style="clip-path:url(#clipPath24); fill:none; stroke-dasharray:none;" y2="98" />
      <line x1="50" x2="44" y1="110" style="clip-path:url(#clipPath24); fill:none; stroke-dasharray:none;" y2="98" />
    </g>
    <g transform="translate(348,62)" style="font-size:11; stroke-linecap:butt; text-rendering:geometricPrecision; font-family:sans-serif; stroke-linejoin:round; stroke-dasharray:4;">
      <line x1="180" x2="180" y1="50" style="clip-path:url(#clipPath25); fill:none;" y2="60" />
      <line x1="180" x2="50" y1="60" style="clip-path:url(#clipPath25); fill:none;" y2="60" />
      <line x1="50" x2="50" y1="60" style="clip-path:url(#clipPath25); fill:none;" y2="110" />
      <line x1="50" x2="56" y1="110" style="clip-path:url(#clipPath25); fill:none; stroke-dasharray:none;" y2="98" />
      <line x1="50" x2="44" y1="110" style="clip-path:url(#clipPath25); fill:none; stroke-dasharray:none;" y2="98" />
    </g>
    <g transform="translate(478,62)" style="font-size:11; stroke-linecap:butt; text-rendering:geometricPrecision; font-family:sans-serif; stroke-linejoin:round; stroke-dasharray:4;">
      <line x1="50" x2="50" y1="50" style="clip-path:url(#clipPath26); fill:none;" y2="110" />
      <line x1="50" x2="56" y1="110" style="clip-path:url(#clipPath26); fill:none; stroke-dasharray:none;" y2="98" />
      <line x1="50" x2="44" y1="110" style="clip-path:url(#clipPath26); fill:none; stroke-dasharray:none;" y2="98" />
    </g>
    <g transform="translate(478,62)" style="font-size:11; stroke-linecap:butt; text-rendering:geometricPrecision; font-family:sans-serif; stroke-linejoin:round; stroke-dasharray:4;">
      <line x1="50" x2="50" y1="50" style="clip-path:url(#clipPath27); fill:none;" y2="60" />
      <line x1="50" x2="170" y1="60" style="clip-path:url(#clipPath27); fill:none;" y2="60" />
      <line x1="170" x2="170" y1="60" style="clip-path:url(#clipPath27); fill:none;" y2="110" />
      <line x1="170" x2="176" y1="110" style="clip-path:url(#clipPath27); fill:none; stroke-dasharray:none;" y2="98" />
      <line x1="170" x2="164" y1="110" style="clip-path:url(#clipPath27); fill:none; stroke-dasharray:none;" y2="98" />
    </g>
    <g transform="translate(478,62)" style="font-size:11; stroke-linecap:butt; text-rendering:geometricPrecision; font-family:sans-serif; stroke-linejoin:round; stroke-dasharray:4;">
      <line x1="50" x2="50" y1="50" style="clip-path:url(#clipPath24); fill:none;" y2="60" />
      <line x1="50" x2="300" y1="60" style="clip-path:url(#clipPath24); fill:none;" y2="60" />
      <line x1="300" x2="300" y1="60" style="clip-path:url(#clipPath24); fill:none;" y2="110" />
      <line x1="300" x2="306" y1="110" style="clip-path:url(#clipPath24); fill:none; stroke-dasharray:none;" y2="98" />
      <line x1="300" x2="294" y1="110" style="clip-path:url(#clipPath24); fill:none; stroke-dasharray:none;" y2="98" />
    </g>
    <g transform="translate(478,62)" style="font-size:11; stroke-linecap:butt; text-rendering:geometricPrecision; font-family:sans-serif; stroke-linejoin:round; stroke-dasharray:4;">
      <line x1="50" x2="50" y1="50" style="clip-path:url(#clipPath28); fill:none;" y2="60" />
      <line x1="50" x2="430" y1="60" style="clip-path:url(#clipPath28); fill:none;" y2="60" />
      <line x1="430" x2="430" y1="60" style="clip-path:url(#clipPath28); fill:none;" y2="110" />
      <line x1="430" x2="436" y1="110" style="clip-path:url(#clipPath28); fill:none; stroke-dasharray:none;" y2="98" />
      <line x1="430" x2="424" y1="110" style="clip-path:url(#clipPath28); fill:none; stroke-dasharray:none;" y2="98" />
    </g>
    <g transform="translate(-12,42)" style="font-size:11; stroke-linecap:butt; text-rendering:geometricPrecision; font-family:sans-serif; stroke-linejoin:round;">
      <line x1="50" x2="500" y1="50" style="clip-path:url(#clipPath29); fill:none;" y2="50" />
    </g>
    <g transform="translate(418,392)" style="font-size:11; stroke-linecap:butt; text-rendering:geometricPrecision; font-family:sans-serif; stroke-linejoin:round; stroke-dasharray:4;">
      <line x1="50" x2="50" y1="50" style="clip-path:url(#clipPath30); fill:none;" y2="180" />
      <line x1="50" x2="56" y1="180" style="clip-path:url(#clipPath30); fill:none; stroke-dasharray:none;" y2="168" />
      <line x1="50" x2="44" y1="180" style="clip-path:url(#clipPath30); fill:none; stroke-dasharray:none;" y2="168" />
    </g>
    <g transform="translate(176,542)" style="font-size:11; stroke-linecap:butt; text-rendering:geometricPrecision; font-family:sans-serif; stroke-linejoin:round;">
      <line x1="50" x2="242" y1="50" style="clip-path:url(#clipPath31); fill:none;" y2="50" />
    </g>
    <g transform="translate(128,390)" style="font-size:11; stroke-linecap:butt; text-rendering:geometricPrecision; font-family:sans-serif; stroke-linejoin:round;">
      <line x1="50" x2="50" y1="182" style="clip-path:url(#clipPath32); fill:none;" y2="112" />
      <line x1="50" x2="320" y1="112" style="clip-path:url(#clipPath32); fill:none;" y2="112" />
      <line x1="320" x2="320" y1="112" style="clip-path:url(#clipPath32); fill:none;" y2="50" />
    </g>
    <g transform="translate(448,542)" style="font-size:11; stroke-linecap:butt; text-rendering:geometricPrecision; font-family:sans-serif; stroke-linejoin:round;">
      <line x1="221" x2="50" y1="50" style="clip-path:url(#clipPath33); fill:none;" y2="50" />
    </g>
    <g transform="translate(318,176)" style="font-size:11; stroke-linecap:butt; text-rendering:geometricPrecision; font-family:sans-serif; stroke-linejoin:round; stroke-dasharray:4;">
      <line x1="50" x2="50" y1="50" style="clip-path:url(#clipPath34); fill:none;" y2="126" />
      <line x1="50" x2="56" y1="126" style="clip-path:url(#clipPath34); fill:none; stroke-dasharray:none;" y2="114" />
      <line x1="50" x2="44" y1="126" style="clip-path:url(#clipPath34); fill:none; stroke-dasharray:none;" y2="114" />
    </g>
    <g transform="translate(448,179)" style="font-size:11; stroke-linecap:butt; text-rendering:geometricPrecision; font-family:sans-serif; stroke-linejoin:round; stroke-dasharray:4;">
      <line x1="50" x2="50" y1="50" style="clip-path:url(#clipPath35); fill:none;" y2="123" />
      <line x1="50" x2="56" y1="123" style="clip-path:url(#clipPath35); fill:none; stroke-dasharray:none;" y2="111" />
      <line x1="50" x2="44" y1="123" style="clip-path:url(#clipPath35); fill:none; stroke-dasharray:none;" y2="111" />
    </g>
    <g transform="translate(578,181)" style="font-size:11; stroke-linecap:butt; text-rendering:geometricPrecision; font-family:sans-serif; stroke-linejoin:round; stroke-dasharray:4;">
      <line x1="50" x2="50" y1="50" style="clip-path:url(#clipPath36); fill:none;" y2="121" />
      <line x1="50" x2="56" y1="121" style="clip-path:url(#clipPath36); fill:none; stroke-dasharray:none;" y2="109" />
      <line x1="50" x2="44" y1="121" style="clip-path:url(#clipPath36); fill:none; stroke-dasharray:none;" y2="109" />
    </g>
    <g style="text-rendering:geometricPrecision; font-size:11; font-family:sans-serif;" transform="translate(558,251)">
      <text x="11" y="12" style="clip-path:url(#clipPath37); stroke:none;" xml:space="preserve">&lt;&lt;Include&gt;&gt;</text>
    </g>
    <g style="text-rendering:geometricPrecision; font-size:11; font-family:sans-serif;" transform="translate(428,251)">
      <text x="11" y="12" style="clip-path:url(#clipPath37); stroke:none;" xml:space="preserve">&lt;&lt;Include&gt;&gt;</text>
    </g>
    <g style="text-rendering:geometricPrecision; font-size:11; font-family:sans-serif;" transform="translate(293,253)">
      <text x="11" y="12" style="clip-path:url(#clipPath37); stroke:none;" xml:space="preserve">&lt;&lt;Include&gt;&gt;</text>
    </g>
    <g style="text-rendering:geometricPrecision; font-size:11; font-family:sans-serif;" transform="translate(574,591)">
      <text x="11" y="12" style="clip-path:url(#clipPath38); stroke:none;" xml:space="preserve">Connection</text>
    </g>
    <g style="text-rendering:geometricPrecision; font-size:11; font-family:sans-serif;" transform="translate(258,502)">
      <text x="11" y="12" style="clip-path:url(#clipPath39); stroke:none;" xml:space="preserve">Instantiation</text>
    </g>
    <g style="text-rendering:geometricPrecision; font-size:11; font-family:sans-serif;" transform="translate(251,590)">
      <text x="11" y="12" style="clip-path:url(#clipPath40); stroke:none;" xml:space="preserve">Data Loading</text>
    </g>
    <g style="text-rendering:geometricPrecision; font-size:11; font-family:sans-serif;" transform="translate(468,492)">
      <text x="11" y="12" style="clip-path:url(#clipPath37); stroke:none;" xml:space="preserve">&lt;&lt;Include&gt;&gt;</text>
    </g>
    <g style="text-rendering:geometricPrecision; font-size:11; font-family:sans-serif;" transform="translate(239,70)">
      <text x="10" y="12" style="clip-path:url(#clipPath4); stroke:none;" xml:space="preserve">Starts the App</text>
    </g>
    <g style="text-rendering:geometricPrecision; font-size:11; font-family:sans-serif;" transform="translate(840,102)">
      <text x="11" y="12" style="clip-path:url(#clipPath37); stroke:none;" xml:space="preserve">&lt;&lt;Include&gt;&gt;</text>
    </g>
    <g style="text-rendering:geometricPrecision; font-size:11; font-family:sans-serif;" transform="translate(711,102)">
      <text x="11" y="12" style="clip-path:url(#clipPath37); stroke:none;" xml:space="preserve">&lt;&lt;Include&gt;&gt;</text>
    </g>
    <g style="text-rendering:geometricPrecision; font-size:11; font-family:sans-serif;" transform="translate(578,102)">
      <text x="11" y="12" style="clip-path:url(#clipPath37); stroke:none;" xml:space="preserve">&lt;&lt;Include&gt;&gt;</text>
    </g>
    <g style="text-rendering:geometricPrecision; font-size:11; font-family:sans-serif;" transform="translate(448,132)">
      <text x="11" y="12" style="clip-path:url(#clipPath37); stroke:none;" xml:space="preserve">&lt;&lt;Include&gt;&gt;</text>
    </g>
    <g style="text-rendering:geometricPrecision; font-size:11; font-family:sans-serif;" transform="translate(418,102)">
      <text x="11" y="12" style="clip-path:url(#clipPath37); stroke:none;" xml:space="preserve">&lt;&lt;Include&gt;&gt;</text>
    </g>
    <g style="text-rendering:geometricPrecision; font-size:11; font-family:sans-serif;" transform="translate(318,102)">
      <text x="11" y="12" style="clip-path:url(#clipPath37); stroke:none;" xml:space="preserve">&lt;&lt;Include&gt;&gt;</text>
    </g>
    <g style="text-rendering:geometricPrecision; font-size:11; font-family:sans-serif;" transform="translate(138,102)">
      <text x="11" y="12" style="clip-path:url(#clipPath37); stroke:none;" xml:space="preserve">&lt;&lt;Include&gt;&gt;</text>
    </g>
    <g style="text-rendering:geometricPrecision; font-size:11; font-family:sans-serif;" transform="translate(428,357)">
      <text x="11" y="12" style="clip-path:url(#clipPath37); stroke:none;" xml:space="preserve">&lt;&lt;Include&gt;&gt;</text>
    </g>
    <g style="text-rendering:geometricPrecision; font-size:11; font-family:sans-serif;" transform="translate(718,402)">
      <text x="11" y="12" style="clip-path:url(#clipPath37); stroke:none;" xml:space="preserve">&lt;&lt;Include&gt;&gt;</text>
    </g>
    <g style="text-rendering:geometricPrecision; font-size:11; font-family:sans-serif;" transform="translate(608,402)">
      <text x="11" y="12" style="clip-path:url(#clipPath37); stroke:none;" xml:space="preserve">&lt;&lt;Include&gt;&gt;</text>
    </g>
    <g style="text-rendering:geometricPrecision; font-size:11; font-family:sans-serif;" transform="translate(508,432)">
      <text x="11" y="12" style="clip-path:url(#clipPath37); stroke:none;" xml:space="preserve">&lt;&lt;Include&gt;&gt;</text>
    </g>
    <g style="text-rendering:geometricPrecision; font-size:11; font-family:sans-serif;" transform="translate(278,402)">
      <text x="11" y="12" style="clip-path:url(#clipPath37); stroke:none;" xml:space="preserve">&lt;&lt;Include&gt;&gt;</text>
    </g>
    <g style="text-rendering:geometricPrecision; font-size:11; font-family:sans-serif;" transform="translate(132,402)">
      <text x="11" y="12" style="clip-path:url(#clipPath37); stroke:none;" xml:space="preserve">&lt;&lt;Include&gt;&gt;</text>
    </g>
  </g>
</svg>
