<?xml version="1.0" encoding="UTF-8"?>

<!DOCTYPE svg PUBLIC '-//W3C//DTD SVG 1.0//EN' 'http://www.w3.org/TR/2001/REC-SVG-20010904/DTD/svg10.dtd'>
<svg style="fill-opacity:1; color-rendering:auto; color-interpolation:auto; stroke:black; text-rendering:auto; stroke-linecap:square; stroke-miterlimit:10; stroke-opacity:1; shape-rendering:auto; fill:black; stroke-dasharray:none; font-weight:normal; stroke-width:1; font-family:&apos;Dialog&apos;; font-style:normal; stroke-linejoin:miter; font-size:12; stroke-dashoffset:0; image-rendering:auto;" xmlns="http://www.w3.org/2000/svg" width="1296" xmlns:xlink="http://www.w3.org/1999/xlink" height="576">
  <!--Generated by the Batik Graphics2D SVG Generator-->
  <defs id="genericDefs" />
  <g>
    <defs id="defs1">
      <clipPath clipPathUnits="userSpaceOnUse" id="clipPath1">
        <path d="M-3 -3 L267 -3 L267 147 L-3 147 L-3 -3 Z" />
      </clipPath>
      <clipPath clipPathUnits="userSpaceOnUse" id="clipPath2">
        <path d="M0 0 L0 132 L260 132 L260 0 Z" />
      </clipPath>
      <clipPath clipPathUnits="userSpaceOnUse" id="clipPath3">
        <path d="M0 0 L260 0 L260 15 L0 15 L0 0 Z" />
      </clipPath>
      <clipPath clipPathUnits="userSpaceOnUse" id="clipPath4">
        <path d="M-3 -3 L167 -3 L167 137 L-3 137 L-3 -3 Z" />
      </clipPath>
      <clipPath clipPathUnits="userSpaceOnUse" id="clipPath5">
        <path d="M0 0 L0 122 L160 122 L160 0 Z" />
      </clipPath>
      <clipPath clipPathUnits="userSpaceOnUse" id="clipPath6">
        <path d="M0 0 L160 0 L160 15 L0 15 L0 0 Z" />
      </clipPath>
      <clipPath clipPathUnits="userSpaceOnUse" id="clipPath7">
        <path d="M-3 -3 L237 -3 L237 127 L-3 127 L-3 -3 Z" />
      </clipPath>
      <clipPath clipPathUnits="userSpaceOnUse" id="clipPath8">
        <path d="M0 0 L0 112 L230 112 L230 0 Z" />
      </clipPath>
      <clipPath clipPathUnits="userSpaceOnUse" id="clipPath9">
        <path d="M0 0 L230 0 L230 15 L0 15 L0 0 Z" />
      </clipPath>
      <clipPath clipPathUnits="userSpaceOnUse" id="clipPath10">
        <path d="M-3 -3 L127 -3 L127 107 L-3 107 L-3 -3 Z" />
      </clipPath>
      <clipPath clipPathUnits="userSpaceOnUse" id="clipPath11">
        <path d="M0 0 L0 92 L120 92 L120 0 Z" />
      </clipPath>
      <clipPath clipPathUnits="userSpaceOnUse" id="clipPath12">
        <path d="M0 0 L120 0 L120 15 L0 15 L0 0 Z" />
      </clipPath>
      <clipPath clipPathUnits="userSpaceOnUse" id="clipPath13">
        <path d="M-3 -3 L137 -3 L137 107 L-3 107 L-3 -3 Z" />
      </clipPath>
      <clipPath clipPathUnits="userSpaceOnUse" id="clipPath14">
        <path d="M0 0 L0 92 L130 92 L130 0 Z" />
      </clipPath>
      <clipPath clipPathUnits="userSpaceOnUse" id="clipPath15">
        <path d="M0 0 L130 0 L130 15 L0 15 L0 0 Z" />
      </clipPath>
      <clipPath clipPathUnits="userSpaceOnUse" id="clipPath16">
        <path d="M-3 -3 L227 -3 L227 137 L-3 137 L-3 -3 Z" />
      </clipPath>
      <clipPath clipPathUnits="userSpaceOnUse" id="clipPath17">
        <path d="M0 0 L0 122 L220 122 L220 0 Z" />
      </clipPath>
      <clipPath clipPathUnits="userSpaceOnUse" id="clipPath18">
        <path d="M0 0 L220 0 L220 15 L0 15 L0 0 Z" />
      </clipPath>
      <clipPath clipPathUnits="userSpaceOnUse" id="clipPath19">
        <path d="M-3 -3 L127 -3 L127 127 L-3 127 L-3 -3 Z" />
      </clipPath>
      <clipPath clipPathUnits="userSpaceOnUse" id="clipPath20">
        <path d="M0 0 L0 112 L120 112 L120 0 Z" />
      </clipPath>
      <clipPath clipPathUnits="userSpaceOnUse" id="clipPath21">
        <path d="M-3 -3 L127 -3 L127 117 L-3 117 L-3 -3 Z" />
      </clipPath>
      <clipPath clipPathUnits="userSpaceOnUse" id="clipPath22">
        <path d="M0 0 L0 102 L120 102 L120 0 Z" />
      </clipPath>
      <clipPath clipPathUnits="userSpaceOnUse" id="clipPath23">
        <path d="M-3 -3 L167 -3 L167 127 L-3 127 L-3 -3 Z" />
      </clipPath>
      <clipPath clipPathUnits="userSpaceOnUse" id="clipPath24">
        <path d="M0 0 L0 112 L160 112 L160 0 Z" />
      </clipPath>
      <clipPath clipPathUnits="userSpaceOnUse" id="clipPath25">
        <path d="M-3 -3 L107 -3 L107 127 L-3 127 L-3 -3 Z" />
      </clipPath>
      <clipPath clipPathUnits="userSpaceOnUse" id="clipPath26">
        <path d="M0 0 L0 112 L100 112 L100 0 Z" />
      </clipPath>
      <clipPath clipPathUnits="userSpaceOnUse" id="clipPath27">
        <path d="M0 0 L100 0 L100 15 L0 15 L0 0 Z" />
      </clipPath>
      <clipPath clipPathUnits="userSpaceOnUse" id="clipPath28">
        <path d="M-3 -3 L87 -3 L87 77 L-3 77 L-3 -3 Z" />
      </clipPath>
      <clipPath clipPathUnits="userSpaceOnUse" id="clipPath29">
        <path d="M0 0 L0 62 L80 62 L80 0 Z" />
      </clipPath>
      <clipPath clipPathUnits="userSpaceOnUse" id="clipPath30">
        <path d="M0 0 L80 0 L80 15 L0 15 L0 0 Z" />
      </clipPath>
      <clipPath clipPathUnits="userSpaceOnUse" id="clipPath31">
        <path d="M-3 -3 L47 -3 L47 27 L-3 27 L-3 -3 Z" />
      </clipPath>
      <clipPath clipPathUnits="userSpaceOnUse" id="clipPath32">
        <path d="M-3 -3 L107 -3 L107 27 L-3 27 L-3 -3 Z" />
      </clipPath>
      <clipPath clipPathUnits="userSpaceOnUse" id="clipPath33">
        <path d="M-3 -3 L117 -3 L117 27 L-3 27 L-3 -3 Z" />
      </clipPath>
      <clipPath clipPathUnits="userSpaceOnUse" id="clipPath34">
        <path d="M-3 -3 L157 -3 L157 27 L-3 27 L-3 -3 Z" />
      </clipPath>
      <clipPath clipPathUnits="userSpaceOnUse" id="clipPath35">
        <path d="M0 0 L333 0 L333 183 L0 183 L0 0 Z" />
      </clipPath>
      <clipPath clipPathUnits="userSpaceOnUse" id="clipPath36">
        <path d="M0 0 L104 0 L104 163 L0 163 L0 0 Z" />
      </clipPath>
      <clipPath clipPathUnits="userSpaceOnUse" id="clipPath37">
        <path d="M0 0 L314 0 L314 193 L0 193 L0 0 Z" />
      </clipPath>
      <clipPath clipPathUnits="userSpaceOnUse" id="clipPath38">
        <path d="M0 0 L594 0 L594 403 L0 403 L0 0 Z" />
      </clipPath>
      <clipPath clipPathUnits="userSpaceOnUse" id="clipPath39">
        <path d="M0 0 L104 0 L104 193 L0 193 L0 0 Z" />
      </clipPath>
      <clipPath clipPathUnits="userSpaceOnUse" id="clipPath40">
        <path d="M0 0 L384 0 L384 104 L0 104 L0 0 Z" />
      </clipPath>
      <clipPath clipPathUnits="userSpaceOnUse" id="clipPath41">
        <path d="M0 0 L464 0 L464 263 L0 263 L0 0 Z" />
      </clipPath>
      <clipPath clipPathUnits="userSpaceOnUse" id="clipPath42">
        <path d="M0 0 L194 0 L194 273 L0 273 L0 0 Z" />
      </clipPath>
      <clipPath clipPathUnits="userSpaceOnUse" id="clipPath43">
        <path d="M0 0 L233 0 L233 104 L0 104 L0 0 Z" />
      </clipPath>
      <clipPath clipPathUnits="userSpaceOnUse" id="clipPath44">
        <path d="M0 0 L453 0 L453 154 L0 154 L0 0 Z" />
      </clipPath>
      <clipPath clipPathUnits="userSpaceOnUse" id="clipPath45">
        <path d="M0 0 L174 0 L174 244 L0 244 L0 0 Z" />
      </clipPath>
      <clipPath clipPathUnits="userSpaceOnUse" id="clipPath46">
        <path d="M0 0 L494 0 L494 173 L0 173 L0 0 Z" />
      </clipPath>
      <clipPath clipPathUnits="userSpaceOnUse" id="clipPath47">
        <path d="M0 0 L394 0 L394 154 L0 154 L0 0 Z" />
      </clipPath>
      <clipPath clipPathUnits="userSpaceOnUse" id="clipPath48">
        <path d="M0 0 L1064 0 L1064 154 L0 154 L0 0 Z" />
      </clipPath>
      <clipPath clipPathUnits="userSpaceOnUse" id="clipPath49">
        <path d="M0 0 L104 0 L104 173 L0 173 L0 0 Z" />
      </clipPath>
      <clipPath clipPathUnits="userSpaceOnUse" id="clipPath50">
        <path d="M0 0 L183 0 L183 104 L0 104 L0 0 Z" />
      </clipPath>
      <clipPath clipPathUnits="userSpaceOnUse" id="clipPath51">
        <path d="M0 0 L104 0 L104 203 L0 203 L0 0 Z" />
      </clipPath>
      <clipPath clipPathUnits="userSpaceOnUse" id="clipPath52">
        <path d="M0 0 L40 0 L40 20 L0 20 L0 0 Z" />
      </clipPath>
      <clipPath clipPathUnits="userSpaceOnUse" id="clipPath53">
        <path d="M0 0 L150 0 L150 20 L0 20 L0 0 Z" />
      </clipPath>
      <clipPath clipPathUnits="userSpaceOnUse" id="clipPath54">
        <path d="M0 0 L110 0 L110 20 L0 20 L0 0 Z" />
      </clipPath>
      <clipPath clipPathUnits="userSpaceOnUse" id="clipPath55">
        <path d="M0 0 L100 0 L100 20 L0 20 L0 0 Z" />
      </clipPath>
      <clipPath clipPathUnits="userSpaceOnUse" id="clipPath56">
        <path d="M0 0 L75 0 L75 15 L0 15 L0 0 Z" />
      </clipPath>
      <clipPath clipPathUnits="userSpaceOnUse" id="clipPath57">
        <path d="M0 0 L93 0 L93 15 L0 15 L0 0 Z" />
      </clipPath>
      <clipPath clipPathUnits="userSpaceOnUse" id="clipPath58">
        <path d="M0 0 L89 0 L89 15 L0 15 L0 0 Z" />
      </clipPath>
      <clipPath clipPathUnits="userSpaceOnUse" id="clipPath59">
        <path d="M0 0 L108 0 L108 15 L0 15 L0 0 Z" />
      </clipPath>
      <clipPath clipPathUnits="userSpaceOnUse" id="clipPath60">
        <path d="M0 0 L80 0 L80 13 L0 13 L0 0 Z" />
      </clipPath>
      <clipPath clipPathUnits="userSpaceOnUse" id="clipPath61">
        <path d="M0 0 L120 0 L120 14 L0 14 L0 0 Z" />
      </clipPath>
      <clipPath clipPathUnits="userSpaceOnUse" id="clipPath62">
        <path d="M0 0 L40 0 L40 14 L0 14 L0 0 Z" />
      </clipPath>
      <clipPath clipPathUnits="userSpaceOnUse" id="clipPath63">
        <path d="M0 0 L85 0 L85 15 L0 15 L0 0 Z" />
      </clipPath>
    </defs>
    <g style="fill:white; text-rendering:geometricPrecision; stroke:white;">
      <rect x="0" y="0" width="1296" style="stroke:none;" height="576" />
    </g>
    <g transform="translate(472,2)" style="font-size:11; fill:rgb(122,207,245); text-rendering:geometricPrecision; font-family:sans-serif; stroke:rgb(122,207,245); font-weight:bold;">
      <rect x="0" y="0" width="260" style="clip-path:url(#clipPath1); stroke:none;" height="140" />
    </g>
    <g transform="translate(472,2)" style="font-size:11; stroke-linecap:butt; text-rendering:geometricPrecision; font-family:sans-serif; stroke-linejoin:round; font-weight:bold; stroke-miterlimit:0;">
      <rect x="0" y="0" width="260" style="clip-path:url(#clipPath1); fill:none;" height="140" />
      <line x1="0" x2="260" y1="15" style="clip-path:url(#clipPath1); fill:none;" y2="15" />
    </g>
    <g style="text-rendering:geometricPrecision; font-size:11; font-family:sans-serif;" transform="translate(472,17)">
      <text x="2" y="14" style="clip-path:url(#clipPath2); stroke:none;" xml:space="preserve">-Place : Venue</text>
      <text x="2" y="29" style="clip-path:url(#clipPath2); stroke:none;" xml:space="preserve">-GeneralInformation : GeneralInformation</text>
      <text x="2" y="44" style="clip-path:url(#clipPath2); stroke:none;" xml:space="preserve">-Conferences : List&lt;Conference&gt;</text>
      <text x="2" y="59" style="clip-path:url(#clipPath2); stroke:none;" xml:space="preserve">-FrequentQuestions : List&lt;FrequentQuestion&gt;</text>
      <text x="2" y="74" style="clip-path:url(#clipPath2); stroke:none;" xml:space="preserve">-ImageGalery : List&lt;Image&gt;</text>
      <text x="2" y="89" style="clip-path:url(#clipPath2); stroke:none;" xml:space="preserve">-EventId : int</text>
    </g>
    <g transform="translate(472,2)" style="text-rendering:geometricPrecision; font-size:11; font-weight:bold; font-family:sans-serif;">
      <text x="101" y="12" style="clip-path:url(#clipPath3); stroke:none;" xml:space="preserve">MainEvent</text>
    </g>
    <g transform="translate(152,202)" style="font-size:11; fill:rgb(122,207,245); text-rendering:geometricPrecision; font-family:sans-serif; stroke:rgb(122,207,245); font-weight:bold;">
      <rect x="0" y="0" width="160" style="clip-path:url(#clipPath4); stroke:none;" height="130" />
    </g>
    <g transform="translate(152,202)" style="font-size:11; stroke-linecap:butt; text-rendering:geometricPrecision; font-family:sans-serif; stroke-linejoin:round; font-weight:bold; stroke-miterlimit:0;">
      <rect x="0" y="0" width="160" style="clip-path:url(#clipPath4); fill:none;" height="130" />
      <line x1="0" x2="160" y1="15" style="clip-path:url(#clipPath4); fill:none;" y2="15" />
    </g>
    <g style="text-rendering:geometricPrecision; font-size:11; font-family:sans-serif;" transform="translate(152,217)">
      <text x="2" y="14" style="clip-path:url(#clipPath5); stroke:none;" xml:space="preserve">-Address : String</text>
      <text x="2" y="29" style="clip-path:url(#clipPath5); stroke:none;" xml:space="preserve">-City : String</text>
      <text x="2" y="44" style="clip-path:url(#clipPath5); stroke:none;" xml:space="preserve">-Country : String</text>
      <text x="2" y="59" style="clip-path:url(#clipPath5); stroke:none;" xml:space="preserve">-Neighourhood : String</text>
    </g>
    <g transform="translate(152,202)" style="text-rendering:geometricPrecision; font-size:11; font-weight:bold; font-family:sans-serif;">
      <text x="62" y="12" style="clip-path:url(#clipPath6); stroke:none;" xml:space="preserve">Venue</text>
    </g>
    <g transform="translate(602,202)" style="font-size:11; fill:rgb(122,207,245); text-rendering:geometricPrecision; font-family:sans-serif; stroke:rgb(122,207,245); font-weight:bold;">
      <rect x="0" y="0" width="230" style="clip-path:url(#clipPath7); stroke:none;" height="120" />
    </g>
    <g transform="translate(602,202)" style="font-size:11; stroke-linecap:butt; text-rendering:geometricPrecision; font-family:sans-serif; stroke-linejoin:round; font-weight:bold; stroke-miterlimit:0;">
      <rect x="0" y="0" width="230" style="clip-path:url(#clipPath7); fill:none;" height="120" />
      <line x1="0" x2="230" y1="15" style="clip-path:url(#clipPath7); fill:none;" y2="15" />
    </g>
    <g style="text-rendering:geometricPrecision; font-size:11; font-family:sans-serif;" transform="translate(602,217)">
      <text x="2" y="14" style="clip-path:url(#clipPath8); stroke:none;" xml:space="preserve">-MainImage : Image</text>
      <text x="2" y="29" style="clip-path:url(#clipPath8); stroke:none;" xml:space="preserve">-EventSocialNetworks : List&lt;SocialNetwork&gt;</text>
      <text x="2" y="44" style="clip-path:url(#clipPath8); stroke:none;" xml:space="preserve">-EventDescription : String</text>
      <text x="2" y="59" style="clip-path:url(#clipPath8); stroke:none;" xml:space="preserve">-EventName : String</text>
    </g>
    <g transform="translate(602,202)" style="text-rendering:geometricPrecision; font-size:11; font-weight:bold; font-family:sans-serif;">
      <text x="63" y="12" style="clip-path:url(#clipPath9); stroke:none;" xml:space="preserve">GeneralInformation</text>
    </g>
    <g transform="translate(882,212)" style="font-size:11; fill:rgb(122,207,245); text-rendering:geometricPrecision; font-family:sans-serif; stroke:rgb(122,207,245); font-weight:bold;">
      <rect x="0" y="0" width="120" style="clip-path:url(#clipPath10); stroke:none;" height="100" />
    </g>
    <g transform="translate(882,212)" style="font-size:11; stroke-linecap:butt; text-rendering:geometricPrecision; font-family:sans-serif; stroke-linejoin:round; font-weight:bold; stroke-miterlimit:0;">
      <rect x="0" y="0" width="120" style="clip-path:url(#clipPath10); fill:none;" height="100" />
      <line x1="0" x2="120" y1="15" style="clip-path:url(#clipPath10); fill:none;" y2="15" />
    </g>
    <g transform="translate(882,227)" style="font-size:11; stroke-linecap:butt; text-rendering:geometricPrecision; font-family:sans-serif; stroke-linejoin:round; stroke-miterlimit:0;">
      <text x="2" y="14" style="clip-path:url(#clipPath11); stroke:none;" xml:space="preserve">-Question : String</text>
      <text x="2" y="29" style="clip-path:url(#clipPath11); stroke:none;" xml:space="preserve">-Answer : String</text>
      <text x="2" y="44" style="clip-path:url(#clipPath11); stroke:none;" xml:space="preserve">-QuestionId : int</text>
    </g>
    <g transform="translate(882,212)" style="font-size:11; stroke-linecap:butt; text-rendering:geometricPrecision; font-family:sans-serif; stroke-linejoin:round; font-weight:bold; stroke-miterlimit:0;">
      <text x="12" y="12" style="clip-path:url(#clipPath12); stroke:none;" xml:space="preserve">FrequentQuestion</text>
    </g>
    <g transform="translate(1162,422)" style="font-size:11; fill:rgb(122,207,245); text-rendering:geometricPrecision; font-family:sans-serif; stroke:rgb(122,207,245); font-weight:bold;">
      <rect x="0" y="0" width="130" style="clip-path:url(#clipPath13); stroke:none;" height="100" />
    </g>
    <g transform="translate(1162,422)" style="font-size:11; stroke-linecap:butt; text-rendering:geometricPrecision; font-family:sans-serif; stroke-linejoin:round; font-weight:bold; stroke-miterlimit:0;">
      <rect x="0" y="0" width="130" style="clip-path:url(#clipPath13); fill:none;" height="100" />
      <line x1="0" x2="130" y1="15" style="clip-path:url(#clipPath13); fill:none;" y2="15" />
    </g>
    <g transform="translate(1162,437)" style="font-size:11; stroke-linecap:butt; text-rendering:geometricPrecision; font-family:sans-serif; stroke-linejoin:round; stroke-miterlimit:0;">
      <text x="2" y="14" style="clip-path:url(#clipPath14); stroke:none;" xml:space="preserve">-ImagePath : String</text>
      <text x="2" y="29" style="clip-path:url(#clipPath14); stroke:none;" xml:space="preserve">-Title : String</text>
      <text x="2" y="44" style="clip-path:url(#clipPath14); stroke:none;" xml:space="preserve">-Description : String</text>
      <text x="2" y="59" style="clip-path:url(#clipPath14); stroke:none;" xml:space="preserve">-ImageId : int</text>
    </g>
    <g transform="translate(1162,422)" style="font-size:11; stroke-linecap:butt; text-rendering:geometricPrecision; font-family:sans-serif; stroke-linejoin:round; font-weight:bold; stroke-miterlimit:0;">
      <text x="49" y="12" style="clip-path:url(#clipPath15); stroke:none;" xml:space="preserve">Image</text>
    </g>
    <g transform="translate(532,402)" style="font-size:11; fill:rgb(122,207,245); text-rendering:geometricPrecision; font-family:sans-serif; stroke:rgb(122,207,245); font-weight:bold;">
      <rect x="0" y="0" width="220" style="clip-path:url(#clipPath16); stroke:none;" height="130" />
    </g>
    <g transform="translate(532,402)" style="font-size:11; stroke-linecap:butt; text-rendering:geometricPrecision; font-family:sans-serif; stroke-linejoin:round; font-weight:bold; stroke-miterlimit:0;">
      <rect x="0" y="0" width="220" style="clip-path:url(#clipPath16); fill:none;" height="130" />
      <line x1="0" x2="220" y1="15" style="clip-path:url(#clipPath16); fill:none;" y2="15" />
    </g>
    <g transform="translate(532,417)" style="font-size:11; stroke-linecap:butt; text-rendering:geometricPrecision; font-family:sans-serif; stroke-linejoin:round; stroke-miterlimit:0;">
      <text x="2" y="14" style="clip-path:url(#clipPath17); stroke:none;" xml:space="preserve">-Name : String</text>
      <text x="2" y="29" style="clip-path:url(#clipPath17); stroke:none;" xml:space="preserve">-Profile : String</text>
      <text x="2" y="44" style="clip-path:url(#clipPath17); stroke:none;" xml:space="preserve">-Photo : Image</text>
      <text x="2" y="59" style="clip-path:url(#clipPath17); stroke:none;" xml:space="preserve">-PreviousWorks : List&lt;Work&gt;</text>
      <text x="2" y="74" style="clip-path:url(#clipPath17); stroke:none;" xml:space="preserve">-SocialNetworks : List&lt;SocialNetwork&gt;</text>
      <text x="2" y="89" style="clip-path:url(#clipPath17); stroke:none;" xml:space="preserve">-PresenterId : int</text>
      <text x="2" y="104" style="clip-path:url(#clipPath17); stroke:none;" xml:space="preserve">-Country : String</text>
    </g>
    <g transform="translate(532,402)" style="font-size:11; stroke-linecap:butt; text-rendering:geometricPrecision; font-family:sans-serif; stroke-linejoin:round; font-weight:bold; stroke-miterlimit:0;">
      <text x="84" y="12" style="clip-path:url(#clipPath18); stroke:none;" xml:space="preserve">Presenter</text>
    </g>
    <g transform="translate(1032,282)" style="font-size:11; fill:rgb(122,207,245); text-rendering:geometricPrecision; font-family:sans-serif; stroke:rgb(122,207,245); font-weight:bold;">
      <rect x="0" y="0" width="120" style="clip-path:url(#clipPath19); stroke:none;" height="120" />
    </g>
    <g transform="translate(1032,282)" style="font-size:11; stroke-linecap:butt; text-rendering:geometricPrecision; font-family:sans-serif; stroke-linejoin:round; font-weight:bold; stroke-miterlimit:0;">
      <rect x="0" y="0" width="120" style="clip-path:url(#clipPath19); fill:none;" height="120" />
      <line x1="0" x2="120" y1="15" style="clip-path:url(#clipPath19); fill:none;" y2="15" />
    </g>
    <g transform="translate(1032,297)" style="font-size:11; stroke-linecap:butt; text-rendering:geometricPrecision; font-family:sans-serif; stroke-linejoin:round; stroke-miterlimit:0;">
      <text x="2" y="14" style="clip-path:url(#clipPath20); stroke:none;" xml:space="preserve">-Link : String</text>
      <text x="2" y="29" style="clip-path:url(#clipPath20); stroke:none;" xml:space="preserve">-NetworkName : String</text>
    </g>
    <g transform="translate(1032,282)" style="font-size:11; stroke-linecap:butt; text-rendering:geometricPrecision; font-family:sans-serif; stroke-linejoin:round; font-weight:bold; stroke-miterlimit:0;">
      <text x="22" y="12" style="clip-path:url(#clipPath12); stroke:none;" xml:space="preserve">SocialNetwork</text>
    </g>
    <g transform="translate(202,422)" style="font-size:11; fill:rgb(122,207,245); text-rendering:geometricPrecision; font-family:sans-serif; stroke:rgb(122,207,245); font-weight:bold;">
      <rect x="0" y="0" width="120" style="clip-path:url(#clipPath21); stroke:none;" height="110" />
    </g>
    <g transform="translate(202,422)" style="font-size:11; stroke-linecap:butt; text-rendering:geometricPrecision; font-family:sans-serif; stroke-linejoin:round; font-weight:bold; stroke-miterlimit:0;">
      <rect x="0" y="0" width="120" style="clip-path:url(#clipPath21); fill:none;" height="110" />
      <line x1="0" x2="120" y1="15" style="clip-path:url(#clipPath21); fill:none;" y2="15" />
    </g>
    <g style="text-rendering:geometricPrecision; font-size:11; font-family:sans-serif;" transform="translate(202,437)">
      <text x="2" y="14" style="clip-path:url(#clipPath22); stroke:none;" xml:space="preserve">-Capacity : int</text>
      <text x="2" y="29" style="clip-path:url(#clipPath22); stroke:none;" xml:space="preserve">-Name : String</text>
      <text x="2" y="44" style="clip-path:url(#clipPath22); stroke:none;" xml:space="preserve">-Picture : Image</text>
      <text x="2" y="59" style="clip-path:url(#clipPath22); stroke:none;" xml:space="preserve">-PlaceId : int</text>
      <text x="2" y="74" style="clip-path:url(#clipPath22); stroke:none;" xml:space="preserve">-Location : Coordinate</text>
    </g>
    <g transform="translate(202,422)" style="text-rendering:geometricPrecision; font-size:11; font-weight:bold; font-family:sans-serif;">
      <text x="45" y="12" style="clip-path:url(#clipPath12); stroke:none;" xml:space="preserve">Place</text>
    </g>
    <g transform="translate(392,212)" style="font-size:11; fill:rgb(122,207,245); text-rendering:geometricPrecision; font-family:sans-serif; stroke:rgb(122,207,245); font-weight:bold;">
      <rect x="0" y="0" width="160" style="clip-path:url(#clipPath23); stroke:none;" height="120" />
    </g>
    <g transform="translate(392,212)" style="font-size:11; stroke-linecap:butt; text-rendering:geometricPrecision; font-family:sans-serif; stroke-linejoin:round; font-weight:bold; stroke-miterlimit:0;">
      <rect x="0" y="0" width="160" style="clip-path:url(#clipPath23); fill:none;" height="120" />
      <line x1="0" x2="160" y1="15" style="clip-path:url(#clipPath23); fill:none;" y2="15" />
    </g>
    <g style="text-rendering:geometricPrecision; font-size:11; font-family:sans-serif;" transform="translate(392,227)">
      <text x="2" y="14" style="clip-path:url(#clipPath24); stroke:none;" xml:space="preserve">-ConferencePlace : Place</text>
      <text x="2" y="29" style="clip-path:url(#clipPath24); stroke:none;" xml:space="preserve">-Hour : Time</text>
      <text x="2" y="44" style="clip-path:url(#clipPath24); stroke:none;" xml:space="preserve">-Date : DateF</text>
      <text x="2" y="59" style="clip-path:url(#clipPath24); stroke:none;" xml:space="preserve">-ConferenceId : int</text>
      <text x="2" y="74" style="clip-path:url(#clipPath24); stroke:none;" xml:space="preserve">-Presenters : List&lt;Presenter&gt;</text>
    </g>
    <g transform="translate(392,212)" style="text-rendering:geometricPrecision; font-size:11; font-weight:bold; font-family:sans-serif;">
      <text x="49" y="12" style="clip-path:url(#clipPath6); stroke:none;" xml:space="preserve">Conference</text>
    </g>
    <g transform="translate(2,432)" style="font-size:11; fill:rgb(122,207,245); text-rendering:geometricPrecision; font-family:sans-serif; stroke:rgb(122,207,245); font-weight:bold;">
      <rect x="0" y="0" width="120" style="clip-path:url(#clipPath21); stroke:none;" height="110" />
    </g>
    <g transform="translate(2,432)" style="font-size:11; stroke-linecap:butt; text-rendering:geometricPrecision; font-family:sans-serif; stroke-linejoin:round; font-weight:bold; stroke-miterlimit:0;">
      <rect x="0" y="0" width="120" style="clip-path:url(#clipPath21); fill:none;" height="110" />
      <line x1="0" x2="120" y1="15" style="clip-path:url(#clipPath21); fill:none;" y2="15" />
    </g>
    <g style="text-rendering:geometricPrecision; font-size:11; font-family:sans-serif;" transform="translate(2,447)">
      <text x="2" y="14" style="clip-path:url(#clipPath22); stroke:none;" xml:space="preserve">-Latitude : int</text>
      <text x="2" y="29" style="clip-path:url(#clipPath22); stroke:none;" xml:space="preserve">-Logitude : int</text>
    </g>
    <g transform="translate(2,432)" style="text-rendering:geometricPrecision; font-size:11; font-weight:bold; font-family:sans-serif;">
      <text x="30" y="12" style="clip-path:url(#clipPath12); stroke:none;" xml:space="preserve">Coordinate</text>
    </g>
    <g transform="translate(882,402)" style="font-size:11; fill:rgb(122,207,245); text-rendering:geometricPrecision; font-family:sans-serif; stroke:rgb(122,207,245); font-weight:bold;">
      <rect x="0" y="0" width="100" style="clip-path:url(#clipPath25); stroke:none;" height="120" />
    </g>
    <g transform="translate(882,402)" style="font-size:11; stroke-linecap:butt; text-rendering:geometricPrecision; font-family:sans-serif; stroke-linejoin:round; font-weight:bold; stroke-miterlimit:0;">
      <rect x="0" y="0" width="100" style="clip-path:url(#clipPath25); fill:none;" height="120" />
      <line x1="0" x2="100" y1="15" style="clip-path:url(#clipPath25); fill:none;" y2="15" />
    </g>
    <g transform="translate(882,417)" style="font-size:11; stroke-linecap:butt; text-rendering:geometricPrecision; font-family:sans-serif; stroke-linejoin:round; stroke-miterlimit:0;">
      <text x="2" y="14" style="clip-path:url(#clipPath26); stroke:none;" xml:space="preserve">-Title : String</text>
      <text x="2" y="29" style="clip-path:url(#clipPath26); stroke:none;" xml:space="preserve">-Abstract : String</text>
      <text x="2" y="44" style="clip-path:url(#clipPath26); stroke:none;" xml:space="preserve">-Year : int</text>
      <text x="2" y="59" style="clip-path:url(#clipPath26); stroke:none;" xml:space="preserve">-Picture : Image</text>
      <text x="2" y="74" style="clip-path:url(#clipPath26); stroke:none;" xml:space="preserve">-WorkId</text>
    </g>
    <g transform="translate(882,402)" style="font-size:11; stroke-linecap:butt; text-rendering:geometricPrecision; font-family:sans-serif; stroke-linejoin:round; font-weight:bold; stroke-miterlimit:0;">
      <text x="36" y="12" style="clip-path:url(#clipPath27); stroke:none;" xml:space="preserve">Work</text>
    </g>
    <g transform="translate(412,432)" style="font-size:11; fill:rgb(122,207,245); text-rendering:geometricPrecision; font-family:sans-serif; stroke:rgb(122,207,245); font-weight:bold;">
      <rect x="0" y="0" width="80" style="clip-path:url(#clipPath28); stroke:none;" height="70" />
    </g>
    <g transform="translate(412,432)" style="font-size:11; stroke-linecap:butt; text-rendering:geometricPrecision; font-family:sans-serif; stroke-linejoin:round; font-weight:bold; stroke-miterlimit:0;">
      <rect x="0" y="0" width="80" style="clip-path:url(#clipPath28); fill:none;" height="70" />
      <line x1="0" x2="80" y1="15" style="clip-path:url(#clipPath28); fill:none;" y2="15" />
    </g>
    <g style="text-rendering:geometricPrecision; font-size:11; font-family:sans-serif;" transform="translate(412,447)">
      <text x="2" y="14" style="clip-path:url(#clipPath29); stroke:none;" xml:space="preserve">-Day : int</text>
      <text x="2" y="29" style="clip-path:url(#clipPath29); stroke:none;" xml:space="preserve">-Month : int</text>
      <text x="2" y="44" style="clip-path:url(#clipPath29); stroke:none;" xml:space="preserve">-Year : int</text>
    </g>
    <g transform="translate(412,432)" style="text-rendering:geometricPrecision; font-size:11; font-weight:bold; font-family:sans-serif;">
      <text x="24" y="12" style="clip-path:url(#clipPath30); stroke:none;" xml:space="preserve">DateF</text>
    </g>
    <g transform="translate(192,72)" style="font-size:11; stroke-linecap:butt; text-rendering:geometricPrecision; font-family:sans-serif; stroke-linejoin:round;">
      <line x1="255" x2="50" y1="50" style="clip-path:url(#clipPath35); fill:none;" y2="50" />
      <line x1="50" x2="50" y1="50" style="clip-path:url(#clipPath35); fill:none;" y2="129" />
      <polygon style="clip-path:url(#clipPath35); stroke:none;" points=" 279 50 267 44 255 50 267 56" />
      <polygon style="fill:none; clip-path:url(#clipPath35);" points=" 279 50 267 44 255 50 267 56" />
    </g>
    <g transform="translate(602,92)" style="font-size:11; stroke-linecap:butt; text-rendering:geometricPrecision; font-family:sans-serif; stroke-linejoin:round;">
      <line x1="50" x2="50" y1="74" style="clip-path:url(#clipPath36); fill:none;" y2="109" />
      <polygon style="clip-path:url(#clipPath36); stroke:none;" points=" 50 50 44 62 50 74 56 62" />
      <polygon style="fill:none; clip-path:url(#clipPath36);" points=" 50 50 44 62 50 74 56 62" />
    </g>
    <g transform="translate(682,72)" style="font-size:11; stroke-linecap:butt; text-rendering:geometricPrecision; font-family:sans-serif; stroke-linejoin:round;">
      <line x1="74" x2="260" y1="50" style="clip-path:url(#clipPath37); fill:none;" y2="50" />
      <line x1="260" x2="260" y1="50" style="clip-path:url(#clipPath37); fill:none;" y2="139" />
      <polygon style="fill:none; clip-path:url(#clipPath37);" points=" 50 50 62 56 74 50 62 44" />
    </g>
    <g transform="translate(682,72)" style="font-size:11; stroke-linecap:butt; text-rendering:geometricPrecision; font-family:sans-serif; stroke-linejoin:round;">
      <line x1="74" x2="540" y1="50" style="clip-path:url(#clipPath38); fill:none;" y2="50" />
      <line x1="540" x2="540" y1="50" style="clip-path:url(#clipPath38); fill:none;" y2="349" />
      <polygon style="fill:none; clip-path:url(#clipPath38);" points=" 50 50 62 56 74 50 62 44" />
    </g>
    <g transform="translate(212,282)" style="font-size:11; stroke-linecap:butt; text-rendering:geometricPrecision; font-family:sans-serif; stroke-linejoin:round;">
      <line x1="50" x2="50" y1="50" style="clip-path:url(#clipPath39); fill:none;" y2="139" />
      <polygon style="fill:white; clip-path:url(#clipPath39); stroke:none;" points=" 50 50 44 62 56 62" />
      <polygon style="fill:none; clip-path:url(#clipPath39);" points=" 50 50 44 62 56 62" />
    </g>
    <g transform="translate(702,352)" style="font-size:11; stroke-linecap:butt; text-rendering:geometricPrecision; font-family:sans-serif; stroke-linejoin:round;">
      <line x1="74" x2="330" y1="50" style="clip-path:url(#clipPath40); fill:none;" y2="50" />
      <polygon style="fill:none; clip-path:url(#clipPath40);" points=" 50 50 62 56 74 50 62 44" />
    </g>
    <g transform="translate(682,72)" style="font-size:11; stroke-linecap:butt; text-rendering:geometricPrecision; font-family:sans-serif; stroke-linejoin:round;">
      <line x1="74" x2="410" y1="50" style="clip-path:url(#clipPath41); fill:none;" y2="50" />
      <line x1="410" x2="410" y1="50" style="clip-path:url(#clipPath41); fill:none;" y2="209" />
      <polygon style="fill:none; clip-path:url(#clipPath41);" points=" 50 50 62 56 74 50 62 44" />
    </g>
    <g transform="translate(12,212)" style="font-size:11; stroke-linecap:butt; stroke-dashoffset:1; text-rendering:geometricPrecision; font-family:sans-serif; stroke-linejoin:round; stroke-dasharray:5;">
      <line x1="140" x2="50" y1="50" style="clip-path:url(#clipPath42); fill:none;" y2="50" />
      <line x1="50" x2="50" y1="50" style="clip-path:url(#clipPath42); fill:none;" y2="219" />
      <line x1="50" x2="56" y1="219" style="stroke-dashoffset:0; clip-path:url(#clipPath42); fill:none; stroke-dasharray:none;" y2="207" />
      <line x1="50" x2="44" y1="219" style="stroke-dashoffset:0; clip-path:url(#clipPath42); fill:none; stroke-dasharray:none;" y2="207" />
    </g>
    <g transform="translate(702,382)" style="font-size:11; stroke-linecap:butt; text-rendering:geometricPrecision; font-family:sans-serif; stroke-linejoin:round;">
      <line x1="74" x2="179" y1="50" style="clip-path:url(#clipPath43); fill:none;" y2="50" />
      <polygon style="fill:none; clip-path:url(#clipPath43);" points=" 50 50 62 56 74 50 62 44" />
    </g>
    <g transform="translate(632,272)" style="font-size:11; stroke-linecap:butt; text-rendering:geometricPrecision; font-family:sans-serif; stroke-linejoin:round;">
      <line x1="50" x2="50" y1="74" style="clip-path:url(#clipPath44); fill:none;" y2="100" />
      <line x1="50" x2="399" y1="100" style="clip-path:url(#clipPath44); fill:none;" y2="100" />
      <polygon style="fill:none; clip-path:url(#clipPath44);" points=" 50 50 44 62 50 74 56 62" />
    </g>
    <g transform="translate(272,282)" style="font-size:11; stroke-linecap:butt; stroke-dashoffset:1; text-rendering:geometricPrecision; font-family:sans-serif; stroke-linejoin:round; stroke-dasharray:5;">
      <line x1="120" x2="120" y1="50" style="clip-path:url(#clipPath45); fill:none;" y2="190" />
      <line x1="120" x2="50" y1="190" style="clip-path:url(#clipPath45); fill:none;" y2="190" />
      <line x1="50" x2="62" y1="190" style="stroke-dashoffset:0; clip-path:url(#clipPath45); fill:none; stroke-dasharray:none;" y2="196" />
      <line x1="50" x2="62" y1="190" style="stroke-dashoffset:0; clip-path:url(#clipPath45); fill:none; stroke-dasharray:none;" y2="184" />
    </g>
    <g transform="translate(492,282)" style="font-size:11; stroke-linecap:butt; text-rendering:geometricPrecision; font-family:sans-serif; stroke-linejoin:round;">
      <line x1="440" x2="440" y1="119" style="clip-path:url(#clipPath46); fill:none;" y2="100" />
      <line x1="440" x2="50" y1="100" style="clip-path:url(#clipPath46); fill:none;" y2="100" />
      <line x1="50" x2="50" y1="100" style="clip-path:url(#clipPath46); fill:none;" y2="50" />
      <polygon style="fill:white; clip-path:url(#clipPath46); stroke:none;" points=" 440 119 446 107 434 107" />
      <polygon style="fill:none; clip-path:url(#clipPath46);" points=" 440 119 446 107 434 107" />
    </g>
    <g transform="translate(882,472)" style="font-size:11; stroke-linecap:butt; text-rendering:geometricPrecision; font-family:sans-serif; stroke-linejoin:round;">
      <line x1="50" x2="50" y1="74" style="clip-path:url(#clipPath47); fill:none;" y2="100" />
      <line x1="50" x2="340" y1="100" style="clip-path:url(#clipPath47); fill:none;" y2="100" />
      <line x1="340" x2="340" y1="100" style="clip-path:url(#clipPath47); fill:none;" y2="50" />
      <polygon style="fill:none; clip-path:url(#clipPath47);" points=" 50 50 44 62 50 74 56 62" />
    </g>
    <g transform="translate(212,472)" style="font-size:11; stroke-linecap:butt; text-rendering:geometricPrecision; font-family:sans-serif; stroke-linejoin:round;">
      <line x1="50" x2="50" y1="84" style="clip-path:url(#clipPath48); fill:none;" y2="100" />
      <line x1="50" x2="1010" y1="100" style="clip-path:url(#clipPath48); fill:none;" y2="100" />
      <line x1="1010" x2="1010" y1="100" style="clip-path:url(#clipPath48); fill:none;" y2="50" />
      <polygon style="fill:none; clip-path:url(#clipPath48);" points=" 50 60 44 72 50 84 56 72" />
    </g>
    <g transform="translate(452,92)" style="font-size:11; stroke-linecap:butt; text-rendering:geometricPrecision; font-family:sans-serif; stroke-linejoin:round;">
      <line x1="50" x2="50" y1="74" style="clip-path:url(#clipPath49); fill:none;" y2="119" />
      <polygon style="clip-path:url(#clipPath49); stroke:none;" points=" 50 50 44 62 50 74 56 62" />
      <polygon style="fill:none; clip-path:url(#clipPath49);" points=" 50 50 44 62 50 74 56 62" />
    </g>
    <g transform="translate(482,282)" style="font-size:11; stroke-linecap:butt; text-rendering:geometricPrecision; font-family:sans-serif; stroke-linejoin:round;">
      <line x1="50" x2="50" y1="74" style="clip-path:url(#clipPath49); fill:none;" y2="119" />
      <polygon style="clip-path:url(#clipPath49); stroke:none;" points=" 50 50 44 62 50 74 56 62" />
      <polygon style="fill:none; clip-path:url(#clipPath49);" points=" 50 50 44 62 50 74 56 62" />
    </g>
    <g transform="translate(72,422)" style="font-size:11; stroke-linecap:butt; stroke-dashoffset:1; text-rendering:geometricPrecision; font-family:sans-serif; stroke-linejoin:round; stroke-dasharray:5;">
      <line x1="50" x2="129" y1="50" style="clip-path:url(#clipPath50); fill:none;" y2="50" />
      <line x1="129" x2="117" y1="50" style="stroke-dashoffset:0; clip-path:url(#clipPath50); fill:none; stroke-dasharray:none;" y2="44" />
      <line x1="129" x2="117" y1="50" style="stroke-dashoffset:0; clip-path:url(#clipPath50); fill:none; stroke-dasharray:none;" y2="56" />
    </g>
    <g transform="translate(402,282)" style="font-size:11; stroke-linecap:butt; stroke-dashoffset:1; text-rendering:geometricPrecision; font-family:sans-serif; stroke-linejoin:round; stroke-dasharray:5;">
      <line x1="50" x2="50" y1="50" style="clip-path:url(#clipPath51); fill:none;" y2="149" />
      <line x1="50" x2="56" y1="149" style="stroke-dashoffset:0; clip-path:url(#clipPath51); fill:none; stroke-dasharray:none;" y2="137" />
      <line x1="50" x2="44" y1="149" style="stroke-dashoffset:0; clip-path:url(#clipPath51); fill:none; stroke-dasharray:none;" y2="137" />
    </g>
    <g style="text-rendering:geometricPrecision; font-size:11; font-family:sans-serif;" transform="translate(942,192)">
      <text x="11" y="14" style="clip-path:url(#clipPath52); stroke:none;" xml:space="preserve">0..*</text>
    </g>
    <g style="text-rendering:geometricPrecision; font-size:11; font-family:sans-serif;" transform="translate(742,102)">
      <text x="17" y="14" style="clip-path:url(#clipPath52); stroke:none;" xml:space="preserve">1</text>
    </g>
    <g style="text-rendering:geometricPrecision; font-size:11; font-family:sans-serif;" transform="translate(942,152)">
      <text x="16" y="14" style="clip-path:url(#clipPath53); stroke:none;" xml:space="preserve">+HasFrequentQuestions</text>
    </g>
    <g style="text-rendering:geometricPrecision; font-size:11; font-family:sans-serif;" transform="translate(212,182)">
      <text x="17" y="14" style="clip-path:url(#clipPath52); stroke:none;" xml:space="preserve">1</text>
    </g>
    <g style="text-rendering:geometricPrecision; font-size:11; font-family:sans-serif;" transform="translate(422,102)">
      <text x="17" y="14" style="clip-path:url(#clipPath52); stroke:none;" xml:space="preserve">1</text>
    </g>
    <g style="text-rendering:geometricPrecision; font-size:11; font-family:sans-serif;" transform="translate(992,382)">
      <text x="11" y="14" style="clip-path:url(#clipPath52); stroke:none;" xml:space="preserve">0..*</text>
    </g>
    <g style="text-rendering:geometricPrecision; font-size:11; font-family:sans-serif;" transform="translate(772,402)">
      <text x="17" y="14" style="clip-path:url(#clipPath52); stroke:none;" xml:space="preserve">1</text>
    </g>
    <g style="text-rendering:geometricPrecision; font-size:11; font-family:sans-serif;" transform="translate(682,352)">
      <text x="17" y="14" style="clip-path:url(#clipPath52); stroke:none;" xml:space="preserve">1</text>
    </g>
    <g style="text-rendering:geometricPrecision; font-size:11; font-family:sans-serif;" transform="translate(502,192)">
      <text x="10" y="14" style="clip-path:url(#clipPath52); stroke:none;" xml:space="preserve">1.. *</text>
    </g>
    <g style="text-rendering:geometricPrecision; font-size:11; font-family:sans-serif;" transform="translate(462,142)">
      <text x="17" y="14" style="clip-path:url(#clipPath52); stroke:none;" xml:space="preserve">1</text>
    </g>
    <g style="text-rendering:geometricPrecision; font-size:11; font-family:sans-serif;" transform="translate(612,182)">
      <text x="17" y="14" style="clip-path:url(#clipPath52); stroke:none;" xml:space="preserve">1</text>
    </g>
    <g style="text-rendering:geometricPrecision; font-size:11; font-family:sans-serif;" transform="translate(652,142)">
      <text x="17" y="14" style="clip-path:url(#clipPath52); stroke:none;" xml:space="preserve">1</text>
    </g>
    <g style="text-rendering:geometricPrecision; font-size:11; font-family:sans-serif;" transform="translate(652,182)">
      <text x="15" y="14" style="clip-path:url(#clipPath54); stroke:none;" xml:space="preserve">+HasInformation</text>
    </g>
    <g style="text-rendering:geometricPrecision; font-size:11; font-family:sans-serif;" transform="translate(852,402)">
      <text x="11" y="14" style="clip-path:url(#clipPath52); stroke:none;" xml:space="preserve">0..*</text>
    </g>
    <g style="text-rendering:geometricPrecision; font-size:11; font-family:sans-serif;" transform="translate(762,432)">
      <text x="17" y="14" style="clip-path:url(#clipPath52); stroke:none;" xml:space="preserve">1</text>
    </g>
    <g style="text-rendering:geometricPrecision; font-size:11; font-family:sans-serif;" transform="translate(1222,402)">
      <text x="11" y="14" style="clip-path:url(#clipPath52); stroke:none;" xml:space="preserve">0..*</text>
    </g>
    <g style="text-rendering:geometricPrecision; font-size:11; font-family:sans-serif;" transform="translate(742,102)">
      <text x="17" y="14" style="clip-path:url(#clipPath52); stroke:none;" xml:space="preserve">1</text>
    </g>
    <g style="text-rendering:geometricPrecision; font-size:11; font-family:sans-serif;" transform="translate(1102,192)">
      <text x="20" y="14" style="clip-path:url(#clipPath55); stroke:none;" xml:space="preserve">+HasImages</text>
    </g>
    <g style="text-rendering:geometricPrecision; font-size:11; font-family:sans-serif;" transform="translate(1092,262)">
      <text x="11" y="14" style="clip-path:url(#clipPath52); stroke:none;" xml:space="preserve">0..*</text>
    </g>
    <g style="text-rendering:geometricPrecision; font-size:11; font-family:sans-serif;" transform="translate(452,402)">
      <text x="11" y="12" style="clip-path:url(#clipPath56); stroke:none;" xml:space="preserve">Has a Date</text>
    </g>
    <g style="text-rendering:geometricPrecision; font-size:11; font-family:sans-serif;" transform="translate(116,452)">
      <text x="10" y="12" style="clip-path:url(#clipPath57); stroke:none;" xml:space="preserve">Has a Location</text>
    </g>
    <g style="text-rendering:geometricPrecision; font-size:11; font-family:sans-serif;" transform="translate(532,382)">
      <text x="10" y="12" style="clip-path:url(#clipPath58); stroke:none;" xml:space="preserve">+PresentedBy</text>
    </g>
    <g style="text-rendering:geometricPrecision; font-size:11; font-family:sans-serif;" transform="translate(502,182)">
      <text x="10" y="12" style="clip-path:url(#clipPath59); stroke:none;" xml:space="preserve">+HasConferences</text>
    </g>
    <g style="text-rendering:geometricPrecision; font-size:11; font-family:sans-serif;" transform="translate(322,392)">
      <text x="10" y="11" style="clip-path:url(#clipPath60); stroke:none;" xml:space="preserve">Takes Place</text>
    </g>
    <g style="text-rendering:geometricPrecision; font-size:11; font-family:sans-serif;" transform="translate(742,352)">
      <text x="9" y="12" style="clip-path:url(#clipPath61); stroke:none;" xml:space="preserve">+HasSocialNetworks</text>
    </g>
    <g style="text-rendering:geometricPrecision; font-size:11; font-family:sans-serif;" transform="translate(762,452)">
      <text x="11" y="12" style="clip-path:url(#clipPath61); stroke:none;" xml:space="preserve">+HasPreviousWorks</text>
    </g>
    <g style="text-rendering:geometricPrecision; font-size:11; font-family:sans-serif;" transform="translate(19,308)">
      <text x="10" y="12" style="clip-path:url(#clipPath62); stroke:none;" xml:space="preserve">Has</text>
    </g>
    <g style="text-rendering:geometricPrecision; font-size:11; font-family:sans-serif;" transform="translate(1093,130)">
      <text x="9" y="12" style="clip-path:url(#clipPath61); stroke:none;" xml:space="preserve">+HasSocialNetworks</text>
    </g>
    <g style="text-rendering:geometricPrecision; font-size:11; font-family:sans-serif;" transform="translate(239,142)">
      <text x="10" y="12" style="clip-path:url(#clipPath63); stroke:none;" xml:space="preserve">+HasAVenue</text>
    </g>
  </g>
</svg>
