<?xml version="1.0" encoding="UTF-8"?>

<!DOCTYPE svg PUBLIC '-//W3C//DTD SVG 1.0//EN' 'http://www.w3.org/TR/2001/REC-SVG-20010904/DTD/svg10.dtd'>
<svg style="fill-opacity:1; color-rendering:auto; color-interpolation:auto; stroke:black; text-rendering:auto; stroke-linecap:square; stroke-miterlimit:10; stroke-opacity:1; shape-rendering:auto; fill:black; stroke-dasharray:none; font-weight:normal; stroke-width:1; font-family:&apos;Dialog&apos;; font-style:normal; stroke-linejoin:miter; font-size:12; stroke-dashoffset:0; image-rendering:auto;" xmlns="http://www.w3.org/2000/svg" width="806" xmlns:xlink="http://www.w3.org/1999/xlink" height="436">
  <!--Generated by the Batik Graphics2D SVG Generator-->
  <defs id="genericDefs" />
  <g>
    <defs id="defs1">
      <clipPath clipPathUnits="userSpaceOnUse" id="clipPath1">
        <path d="M-3 -3 L347 -3 L347 287 L-3 287 L-3 -3 Z" />
      </clipPath>
      <clipPath clipPathUnits="userSpaceOnUse" id="clipPath2">
        <path d="M0 0 L340 0 L340 15 L0 15 L0 0 Z" />
      </clipPath>
      <clipPath clipPathUnits="userSpaceOnUse" id="clipPath3">
        <path d="M-3 -3 L377 -3 L377 437 L-3 437 L-3 -3 Z" />
      </clipPath>
      <clipPath clipPathUnits="userSpaceOnUse" id="clipPath4">
        <path d="M0 0 L370 0 L370 15 L0 15 L0 0 Z" />
      </clipPath>
      <clipPath clipPathUnits="userSpaceOnUse" id="clipPath5">
        <path d="M-3 -3 L147 -3 L147 107 L-3 107 L-3 -3 Z" />
      </clipPath>
      <clipPath clipPathUnits="userSpaceOnUse" id="clipPath6">
        <path d="M0 0 L140 0 L140 15 L0 15 L0 0 Z" />
      </clipPath>
      <clipPath clipPathUnits="userSpaceOnUse" id="clipPath7">
        <path d="M0 0 L104 0 L104 104 L0 104 L0 0 Z" />
      </clipPath>
      <clipPath clipPathUnits="userSpaceOnUse" id="clipPath8">
        <path d="M0 0 L254 0 L254 124 L0 124 L0 0 Z" />
      </clipPath>
      <clipPath clipPathUnits="userSpaceOnUse" id="clipPath9">
        <path d="M0 0 L383 0 L383 224 L0 224 L0 0 Z" />
      </clipPath>
      <clipPath clipPathUnits="userSpaceOnUse" id="clipPath10">
        <path d="M0 0 L403 0 L403 104 L0 104 L0 0 Z" />
      </clipPath>
      <clipPath clipPathUnits="userSpaceOnUse" id="clipPath11">
        <path d="M0 0 L493 0 L493 344 L0 344 L0 0 Z" />
      </clipPath>
      <clipPath clipPathUnits="userSpaceOnUse" id="clipPath12">
        <path d="M0 0 L76 0 L76 15 L0 15 L0 0 Z" />
      </clipPath>
    </defs>
    <g style="fill:white; text-rendering:geometricPrecision; stroke:white;">
      <rect x="0" y="0" width="806" style="stroke:none;" height="436" />
    </g>
    <g transform="translate(2,12)" style="font-size:11; fill:rgb(122,207,245); text-rendering:geometricPrecision; font-family:sans-serif; stroke:rgb(122,207,245);">
      <rect x="0" y="0" width="67" style="clip-path:url(#clipPath1); stroke:none;" height="20" />
      <rect x="0" y="20" width="339" style="clip-path:url(#clipPath1); stroke:none;" height="259" />
    </g>
    <g transform="translate(2,12)" style="font-size:11; stroke-linecap:butt; text-rendering:geometricPrecision; font-family:sans-serif; stroke-linejoin:round; stroke-miterlimit:0;">
      <rect x="0" y="0" width="67" style="clip-path:url(#clipPath1); fill:none;" height="20" />
      <rect x="0" y="20" width="339" style="clip-path:url(#clipPath1); fill:none;" height="259" />
    </g>
    <g style="text-rendering:geometricPrecision; font-size:11; font-family:sans-serif;" transform="translate(2,32)">
      <text x="160" y="12" style="clip-path:url(#clipPath2); stroke:none;" xml:space="preserve">PCL</text>
    </g>
    <g transform="translate(432,2)" style="font-size:11; fill:rgb(122,207,245); text-rendering:geometricPrecision; font-family:sans-serif; stroke:rgb(122,207,245);">
      <rect x="0" y="0" width="73" style="clip-path:url(#clipPath3); stroke:none;" height="20" />
      <rect x="0" y="20" width="369" style="clip-path:url(#clipPath3); stroke:none;" height="409" />
    </g>
    <g transform="translate(432,2)" style="font-size:11; stroke-linecap:butt; text-rendering:geometricPrecision; font-family:sans-serif; stroke-linejoin:round; stroke-miterlimit:0;">
      <rect x="0" y="0" width="73" style="clip-path:url(#clipPath3); fill:none;" height="20" />
      <rect x="0" y="20" width="369" style="clip-path:url(#clipPath3); fill:none;" height="409" />
    </g>
    <g style="text-rendering:geometricPrecision; font-size:11; font-family:sans-serif;" transform="translate(432,22)">
      <text x="175" y="12" style="clip-path:url(#clipPath4); stroke:none;" xml:space="preserve">App</text>
    </g>
    <g transform="translate(22,62)" style="font-size:11; fill:rgb(122,207,245); text-rendering:geometricPrecision; font-family:sans-serif; stroke:rgb(122,207,245);">
      <rect x="0" y="0" width="27" style="clip-path:url(#clipPath5); stroke:none;" height="20" />
      <rect x="0" y="20" width="139" style="clip-path:url(#clipPath5); stroke:none;" height="79" />
    </g>
    <g transform="translate(22,62)" style="font-size:11; stroke-linecap:butt; text-rendering:geometricPrecision; font-family:sans-serif; stroke-linejoin:round; stroke-miterlimit:0;">
      <rect x="0" y="0" width="27" style="clip-path:url(#clipPath5); fill:none;" height="20" />
      <rect x="0" y="20" width="139" style="clip-path:url(#clipPath5); fill:none;" height="79" />
    </g>
    <g style="text-rendering:geometricPrecision; font-size:11; font-family:sans-serif;" transform="translate(22,82)">
      <text x="56" y="12" style="clip-path:url(#clipPath6); stroke:none;" xml:space="preserve">Model</text>
    </g>
    <g transform="translate(22,172)" style="font-size:11; fill:rgb(122,207,245); text-rendering:geometricPrecision; font-family:sans-serif; stroke:rgb(122,207,245);">
      <rect x="0" y="0" width="27" style="clip-path:url(#clipPath5); stroke:none;" height="20" />
      <rect x="0" y="20" width="139" style="clip-path:url(#clipPath5); stroke:none;" height="79" />
    </g>
    <g transform="translate(22,172)" style="font-size:11; stroke-linecap:butt; text-rendering:geometricPrecision; font-family:sans-serif; stroke-linejoin:round; stroke-miterlimit:0;">
      <rect x="0" y="0" width="27" style="clip-path:url(#clipPath5); fill:none;" height="20" />
      <rect x="0" y="20" width="139" style="clip-path:url(#clipPath5); fill:none;" height="79" />
    </g>
    <g style="text-rendering:geometricPrecision; font-size:11; font-family:sans-serif;" transform="translate(22,192)">
      <text x="43" y="12" style="clip-path:url(#clipPath6); stroke:none;" xml:space="preserve">Repository</text>
    </g>
    <g transform="translate(192,122)" style="font-size:11; fill:rgb(122,207,245); text-rendering:geometricPrecision; font-family:sans-serif; stroke:rgb(122,207,245);">
      <rect x="0" y="0" width="27" style="clip-path:url(#clipPath5); stroke:none;" height="20" />
      <rect x="0" y="20" width="139" style="clip-path:url(#clipPath5); stroke:none;" height="79" />
    </g>
    <g transform="translate(192,122)" style="font-size:11; stroke-linecap:butt; text-rendering:geometricPrecision; font-family:sans-serif; stroke-linejoin:round; stroke-miterlimit:0;">
      <rect x="0" y="0" width="27" style="clip-path:url(#clipPath5); fill:none;" height="20" />
      <rect x="0" y="20" width="139" style="clip-path:url(#clipPath5); fill:none;" height="79" />
    </g>
    <g style="text-rendering:geometricPrecision; font-size:11; font-family:sans-serif;" transform="translate(192,142)">
      <text x="40" y="12" style="clip-path:url(#clipPath6); stroke:none;" xml:space="preserve">DataService</text>
    </g>
    <g transform="translate(642,42)" style="font-size:11; fill:rgb(122,207,245); text-rendering:geometricPrecision; font-family:sans-serif; stroke:rgb(122,207,245);">
      <rect x="0" y="0" width="27" style="clip-path:url(#clipPath5); stroke:none;" height="20" />
      <rect x="0" y="20" width="139" style="clip-path:url(#clipPath5); stroke:none;" height="79" />
    </g>
    <g transform="translate(642,42)" style="font-size:11; stroke-linecap:butt; text-rendering:geometricPrecision; font-family:sans-serif; stroke-linejoin:round; stroke-miterlimit:0;">
      <rect x="0" y="0" width="27" style="clip-path:url(#clipPath5); fill:none;" height="20" />
      <rect x="0" y="20" width="139" style="clip-path:url(#clipPath5); fill:none;" height="79" />
    </g>
    <g style="text-rendering:geometricPrecision; font-size:11; font-family:sans-serif;" transform="translate(642,62)">
      <text x="53" y="12" style="clip-path:url(#clipPath6); stroke:none;" xml:space="preserve">Views</text>
    </g>
    <g transform="translate(462,42)" style="font-size:11; fill:rgb(122,207,245); text-rendering:geometricPrecision; font-family:sans-serif; stroke:rgb(122,207,245);">
      <rect x="0" y="0" width="27" style="clip-path:url(#clipPath5); stroke:none;" height="20" />
      <rect x="0" y="20" width="139" style="clip-path:url(#clipPath5); stroke:none;" height="79" />
    </g>
    <g transform="translate(462,42)" style="font-size:11; stroke-linecap:butt; text-rendering:geometricPrecision; font-family:sans-serif; stroke-linejoin:round; stroke-miterlimit:0;">
      <rect x="0" y="0" width="27" style="clip-path:url(#clipPath5); fill:none;" height="20" />
      <rect x="0" y="20" width="139" style="clip-path:url(#clipPath5); fill:none;" height="79" />
    </g>
    <g style="text-rendering:geometricPrecision; font-size:11; font-family:sans-serif;" transform="translate(462,62)">
      <text x="47" y="12" style="clip-path:url(#clipPath6); stroke:none;" xml:space="preserve">Activities</text>
    </g>
    <g transform="translate(462,172)" style="font-size:11; fill:rgb(122,207,245); text-rendering:geometricPrecision; font-family:sans-serif; stroke:rgb(122,207,245);">
      <rect x="0" y="0" width="27" style="clip-path:url(#clipPath5); stroke:none;" height="20" />
      <rect x="0" y="20" width="139" style="clip-path:url(#clipPath5); stroke:none;" height="79" />
    </g>
    <g transform="translate(462,172)" style="font-size:11; stroke-linecap:butt; text-rendering:geometricPrecision; font-family:sans-serif; stroke-linejoin:round; stroke-miterlimit:0;">
      <rect x="0" y="0" width="27" style="clip-path:url(#clipPath5); fill:none;" height="20" />
      <rect x="0" y="20" width="139" style="clip-path:url(#clipPath5); fill:none;" height="79" />
    </g>
    <g style="text-rendering:geometricPrecision; font-size:11; font-family:sans-serif;" transform="translate(462,192)">
      <text x="44" y="12" style="clip-path:url(#clipPath6); stroke:none;" xml:space="preserve">Fragments</text>
    </g>
    <g transform="translate(642,172)" style="font-size:11; fill:rgb(122,207,245); text-rendering:geometricPrecision; font-family:sans-serif; stroke:rgb(122,207,245);">
      <rect x="0" y="0" width="27" style="clip-path:url(#clipPath5); stroke:none;" height="20" />
      <rect x="0" y="20" width="139" style="clip-path:url(#clipPath5); stroke:none;" height="79" />
    </g>
    <g transform="translate(642,172)" style="font-size:11; stroke-linecap:butt; text-rendering:geometricPrecision; font-family:sans-serif; stroke-linejoin:round; stroke-miterlimit:0;">
      <rect x="0" y="0" width="27" style="clip-path:url(#clipPath5); fill:none;" height="20" />
      <rect x="0" y="20" width="139" style="clip-path:url(#clipPath5); fill:none;" height="79" />
    </g>
    <g style="text-rendering:geometricPrecision; font-size:11; font-family:sans-serif;" transform="translate(642,192)">
      <text x="53" y="12" style="clip-path:url(#clipPath6); stroke:none;" xml:space="preserve">Utilities</text>
    </g>
    <g transform="translate(552,292)" style="font-size:11; fill:rgb(122,207,245); text-rendering:geometricPrecision; font-family:sans-serif; stroke:rgb(122,207,245);">
      <rect x="0" y="0" width="27" style="clip-path:url(#clipPath5); stroke:none;" height="20" />
      <rect x="0" y="20" width="139" style="clip-path:url(#clipPath5); stroke:none;" height="79" />
    </g>
    <g transform="translate(552,292)" style="font-size:11; stroke-linecap:butt; text-rendering:geometricPrecision; font-family:sans-serif; stroke-linejoin:round; stroke-miterlimit:0;">
      <rect x="0" y="0" width="27" style="clip-path:url(#clipPath5); fill:none;" height="20" />
      <rect x="0" y="20" width="139" style="clip-path:url(#clipPath5); fill:none;" height="79" />
    </g>
    <g style="text-rendering:geometricPrecision; font-size:11; font-family:sans-serif;" transform="translate(552,312)">
      <text x="47" y="12" style="clip-path:url(#clipPath6); stroke:none;" xml:space="preserve">Adapters</text>
    </g>
    <g transform="translate(282,92)" style="font-size:11; stroke-linecap:butt; stroke-dashoffset:1; text-rendering:geometricPrecision; font-family:sans-serif; stroke-linejoin:round; stroke-dasharray:5;">
      <line x1="200" x2="200" y1="50" style="clip-path:url(#clipPath8); fill:none;" y2="70" />
      <line x1="200" x2="50" y1="70" style="clip-path:url(#clipPath8); fill:none;" y2="70" />
      <line x1="50" x2="62" y1="70" style="stroke-dashoffset:0; clip-path:url(#clipPath8); fill:none; stroke-dasharray:none;" y2="76" />
      <line x1="50" x2="62" y1="70" style="stroke-dashoffset:0; clip-path:url(#clipPath8); fill:none; stroke-dasharray:none;" y2="64" />
    </g>
    <g transform="translate(222,172)" style="font-size:11; stroke-linecap:butt; stroke-dashoffset:1; text-rendering:geometricPrecision; font-family:sans-serif; stroke-linejoin:round; stroke-dasharray:5;">
      <line x1="329" x2="50" y1="170" style="clip-path:url(#clipPath9); fill:none;" y2="170" />
      <line x1="50" x2="50" y1="170" style="clip-path:url(#clipPath9); fill:none;" y2="50" />
      <line x1="50" x2="44" y1="50" style="stroke-dashoffset:0; clip-path:url(#clipPath9); fill:none; stroke-dasharray:none;" y2="62" />
      <line x1="50" x2="56" y1="50" style="stroke-dashoffset:0; clip-path:url(#clipPath9); fill:none; stroke-dasharray:none;" y2="62" />
    </g>
    <g transform="translate(112,52)" style="font-size:11; stroke-linecap:butt; stroke-dashoffset:1; text-rendering:geometricPrecision; font-family:sans-serif; stroke-linejoin:round; stroke-dasharray:5;">
      <line x1="349" x2="50" y1="50" style="clip-path:url(#clipPath10); fill:none;" y2="50" />
      <line x1="50" x2="62" y1="50" style="stroke-dashoffset:0; clip-path:url(#clipPath10); fill:none; stroke-dasharray:none;" y2="56" />
      <line x1="50" x2="62" y1="50" style="stroke-dashoffset:0; clip-path:url(#clipPath10); fill:none; stroke-dasharray:none;" y2="44" />
    </g>
    <g transform="translate(112,82)" style="font-size:11; stroke-linecap:butt; stroke-dashoffset:1; text-rendering:geometricPrecision; font-family:sans-serif; stroke-linejoin:round; stroke-dasharray:5;">
      <line x1="439" x2="70" y1="290" style="clip-path:url(#clipPath11); fill:none;" y2="290" />
      <line x1="70" x2="70" y1="290" style="clip-path:url(#clipPath11); fill:none;" y2="50" />
      <line x1="70" x2="50" y1="50" style="clip-path:url(#clipPath11); fill:none;" y2="50" />
      <line x1="50" x2="62" y1="50" style="stroke-dashoffset:0; clip-path:url(#clipPath11); fill:none; stroke-dasharray:none;" y2="56" />
      <line x1="50" x2="62" y1="50" style="stroke-dashoffset:0; clip-path:url(#clipPath11); fill:none; stroke-dasharray:none;" y2="44" />
    </g>
    <g style="text-rendering:geometricPrecision; font-size:11; font-family:sans-serif;" transform="translate(352,372)">
      <text x="11" y="12" style="clip-path:url(#clipPath12); stroke:none;" xml:space="preserve">&lt;&lt;import&gt;&gt;</text>
    </g>
    <g style="text-rendering:geometricPrecision; font-size:11; font-family:sans-serif;" transform="translate(352,102)">
      <text x="11" y="12" style="clip-path:url(#clipPath12); stroke:none;" xml:space="preserve">&lt;&lt;import&gt;&gt;</text>
    </g>
    <g style="text-rendering:geometricPrecision; font-size:11; font-family:sans-serif;" transform="translate(352,342)">
      <text x="11" y="12" style="clip-path:url(#clipPath12); stroke:none;" xml:space="preserve">&lt;&lt;import&gt;&gt;</text>
    </g>
    <g style="text-rendering:geometricPrecision; font-size:11; font-family:sans-serif;" transform="translate(352,162)">
      <text x="11" y="12" style="clip-path:url(#clipPath12); stroke:none;" xml:space="preserve">&lt;&lt;import&gt;&gt;</text>
    </g>
  </g>
</svg>
